<?xml version="1.0" standalone="no"?>
<!DOCTYPE svg PUBLIC "-//W3C//DTD SVG 20010904//EN"
 "http://www.w3.org/TR/2001/REC-SVG-20010904/DTD/svg10.dtd">
<svg version="1.0" xmlns="http://www.w3.org/2000/svg"
 width="500.000000pt" height="403.000000pt" viewBox="0 0 500.000000 403.000000"
 preserveAspectRatio="xMidYMid meet">

<g transform="translate(0.000000,403.000000) scale(0.100000,-0.100000)"
fill="#000000" stroke="none">
<path d="M4030 4023 c-441 -34 -732 -163 -873 -385 -76 -119 -109 -245 -127
-478 -19 -256 -36 -328 -88 -383 -39 -42 -71 -55 -190 -84 -78 -18 -147 -26
-258 -30 -191 -7 -261 6 -485 92 -197 76 -264 94 -384 106 -177 16 -367 -19
-512 -96 -104 -55 -167 -104 -317 -244 -187 -175 -249 -209 -394 -218 -70 -5
-89 -10 -113 -30 -23 -20 -29 -33 -29 -66 0 -39 5 -47 74 -114 133 -128 302
-191 479 -179 48 3 87 4 87 1 0 -12 -170 -1129 -173 -1131 -1 -1 -74 18 -162
42 -233 65 -343 61 -450 -17 -171 -126 -142 -374 56 -475 87 -44 467 -146 758
-204 207 -41 524 -85 761 -107 240 -21 838 -24 1065 -5 661 56 1237 180 1805
386 176 64 231 92 290 144 177 155 129 406 -90 473 -107 32 -180 23 -367 -44
-184 -67 -343 -120 -347 -116 -2 2 -26 351 -55 774 -28 424 -55 797 -58 829
l-6 59 99 -6 c161 -10 388 -57 598 -123 120 -38 125 -34 245 144 109 164 131
202 131 230 0 84 -473 639 -723 848 l-49 41 11 145 c18 223 4 238 -209 221z
m16 -225 c-13 -85 -16 -207 -6 -229 6 -13 30 -37 53 -54 130 -92 373 -342 561
-576 146 -182 140 -161 70 -269 -42 -64 -63 -88 -74 -84 -46 17 -253 68 -367
89 -152 28 -396 50 -457 40 -22 -3 -48 -11 -57 -18 -44 -34 -45 -8 22 -974 67
-974 66 -932 18 -933 -11 0 -91 137 -254 435 -135 249 -248 444 -262 455 -38
30 -88 26 -124 -9 -33 -33 -37 -70 -14 -115 8 -15 15 -32 15 -36 0 -10 -171
-66 -250 -81 -108 -21 -291 -16 -390 10 -118 31 -250 97 -369 185 -111 83
-137 94 -182 76 -24 -11 -40 -33 -82 -119 -60 -121 -131 -202 -212 -242 -41
-19 -65 -24 -135 -24 -47 0 -110 4 -141 9 -85 13 -90 5 -245 -325 l-133 -284
-52 2 c-29 2 -54 5 -56 7 -2 2 41 304 96 670 56 367 98 678 95 691 -8 34 -50
65 -87 65 -17 0 -60 -12 -96 -27 -56 -23 -80 -27 -161 -27 -69 0 -106 5 -135
17 l-39 18 56 28 c86 44 134 80 263 201 204 190 294 249 436 284 76 19 272 22
349 5 l50 -11 0 -46 c0 -76 37 -208 82 -296 53 -101 171 -224 273 -284 220
-129 489 -147 692 -47 200 98 316 327 300 589 -6 83 -4 91 18 120 55 72 88
192 100 361 18 261 38 365 88 460 86 161 277 265 567 309 52 8 114 14 138 15
l43 1 -5 -32z m-1995 -1262 c234 -84 476 -90 777 -21 35 8 66 15 69 15 3 0 4
-35 1 -77 -6 -104 -42 -185 -112 -251 -213 -201 -652 -85 -790 209 -30 63 -57
159 -45 159 2 0 47 -15 100 -34z m74 -1111 c309 -208 672 -246 1046 -112 l97
34 164 -301 c103 -188 161 -303 154 -307 -19 -11 -272 -58 -452 -84 -479 -70
-1031 -83 -1489 -35 -204 21 -415 54 -415 64 1 6 47 110 103 230 l103 219 80
-2 c207 -6 380 89 494 268 25 39 46 71 46 71 1 0 32 -20 69 -45z m2584 -586
c18 -6 38 -24 47 -41 14 -27 14 -32 -4 -66 -26 -52 -95 -90 -290 -160 -540
-193 -1098 -311 -1717 -363 -197 -17 -776 -17 -980 -1 -450 37 -891 114 -1296
228 -90 26 -180 54 -199 64 -80 41 -97 102 -42 152 49 43 105 41 277 -7 939
-264 1889 -314 2845 -149 328 56 719 160 1025 271 242 89 269 94 334 72z"/>
<path d="M3974 3306 c-108 -47 -70 -186 51 -186 41 0 91 39 98 77 8 44 -17 92
-57 108 -43 18 -52 18 -92 1z"/>
<path d="M3063 1935 c-37 -16 -53 -42 -53 -85 0 -45 16 -70 57 -86 96 -41 176
70 106 145 -34 36 -68 44 -110 26z"/>
</g>
</svg>
