<?xml version="1.0" standalone="no"?>
<!DOCTYPE svg PUBLIC "-//W3C//DTD SVG 20010904//EN"
 "http://www.w3.org/TR/2001/REC-SVG-20010904/DTD/svg10.dtd">
<svg version="1.0" xmlns="http://www.w3.org/2000/svg"
 width="500.000000pt" height="446.000000pt" viewBox="0 0 500.000000 446.000000"
 preserveAspectRatio="xMidYMid meet">

<g transform="translate(0.000000,446.000000) scale(0.100000,-0.100000)"
fill="#000000" stroke="none">
<path d="M3499 4431 c-25 -25 -29 -37 -29 -83 0 -255 -144 -453 -371 -513 -45
-12 -206 -15 -957 -15 -1005 0 -991 1 -1126 -67 -94 -47 -201 -154 -244 -243
-91 -187 -80 -391 29 -560 21 -33 39 -63 39 -65 0 -3 -54 -5 -119 -5 -130 0
-161 -7 -205 -48 -58 -55 -66 -87 -66 -298 l0 -192 -112 -4 c-90 -3 -123 -8
-163 -26 -63 -29 -109 -73 -143 -137 l-27 -50 0 -655 c0 -723 -2 -694 66 -871
67 -174 228 -361 397 -463 97 -58 247 -111 355 -125 49 -7 333 -11 748 -11
l671 0 29 29 c35 36 40 95 10 132 l-19 24 -709 5 c-687 6 -710 7 -786 28 -268
74 -475 282 -549 549 -21 75 -22 102 -26 658 -2 319 -1 599 3 624 4 26 16 53
30 67 l24 24 2251 0 2251 0 24 -24 c14 -14 26 -41 30 -67 4 -25 5 -305 3 -624
-4 -556 -5 -583 -26 -658 -74 -267 -281 -475 -549 -549 -75 -21 -103 -22 -671
-27 l-594 -6 -24 -28 c-26 -31 -30 -62 -12 -102 25 -55 20 -55 617 -55 331 0
581 4 628 11 108 14 258 67 355 125 169 102 330 289 397 463 68 177 66 148 66
871 l0 655 -27 50 c-34 64 -80 108 -143 137 -40 18 -73 23 -162 26 l-113 4 0
192 c0 211 -8 243 -66 298 -45 42 -75 48 -230 48 -79 0 -144 2 -144 5 0 2 18
23 40 47 169 179 238 453 175 693 -21 82 -84 210 -133 272 -44 56 -549 530
-585 550 -38 21 -76 15 -108 -16z m345 -461 c102 -95 194 -190 216 -223 125
-186 125 -424 1 -613 -71 -109 -175 -186 -306 -227 l-70 -22 -1240 0 c-1156 0
-1243 1 -1290 18 -157 55 -268 228 -250 389 9 79 63 186 118 234 23 20 67 48
97 63 l55 26 955 5 955 5 80 26 c215 67 388 229 455 428 16 45 28 67 35 63 7
-4 92 -81 189 -172z m516 -1455 l0 -175 -1860 0 -1860 0 0 175 0 175 1860 0
1860 0 0 -175z"/>
<path d="M1611 3416 c-56 -31 -66 -99 -22 -148 l29 -33 387 0 387 0 29 33 c44
49 34 119 -22 148 -39 20 -752 20 -788 0z"/>
<path d="M2724 3421 c-39 -17 -66 -62 -60 -99 6 -42 22 -61 64 -79 91 -38 171
88 98 156 -26 24 -72 34 -102 22z"/>
<path d="M1145 1673 c-44 -23 -65 -44 -86 -86 -19 -35 -20 -59 -17 -431 l3
-394 31 -38 c16 -21 48 -47 70 -58 39 -21 43 -21 1354 -21 1311 0 1315 0 1354
21 22 11 54 37 70 58 l31 38 3 394 c2 350 1 397 -14 426 -23 46 -44 67 -86 89
-36 18 -81 19 -1360 19 -1188 -1 -1326 -2 -1353 -17z m2625 -503 l0 -330
-1270 0 -1270 0 0 330 0 330 1270 0 1270 0 0 -330z"/>
<path d="M1695 1261 c-32 -13 -55 -46 -62 -83 -4 -29 0 -41 25 -69 l30 -34
812 0 812 0 30 34 c25 28 29 39 24 69 -3 20 -17 47 -31 61 l-25 26 -798 2
c-438 1 -806 -2 -817 -6z"/>
<path d="M2527 170 c-51 -40 -43 -126 14 -155 41 -22 74 -18 108 11 26 22 31
33 31 70 0 34 -6 51 -25 69 -31 32 -91 34 -128 5z"/>
</g>
</svg>
