<?xml version="1.0" standalone="no"?>
<!DOCTYPE svg PUBLIC "-//W3C//DTD SVG 20010904//EN"
 "http://www.w3.org/TR/2001/REC-SVG-20010904/DTD/svg10.dtd">
<svg version="1.0" xmlns="http://www.w3.org/2000/svg"
 width="500.000000pt" height="500.000000pt" viewBox="0 0 500.000000 500.000000"
 preserveAspectRatio="xMidYMid meet">

<g transform="translate(0.000000,500.000000) scale(0.100000,-0.100000)"
fill="#000000" stroke="none">
<path d="M464 4982 c-17 -11 -36 -35 -43 -53 -7 -19 -28 -67 -47 -106 -56
-114 -126 -170 -307 -247 -69 -29 -88 -125 -34 -173 12 -11 50 -30 85 -43 131
-48 234 -152 287 -290 31 -82 61 -110 117 -110 32 0 47 7 74 34 19 19 34 41
34 49 0 49 87 183 155 237 46 37 147 90 171 90 9 0 31 15 50 34 27 27 34 42
34 74 0 56 -28 86 -110 117 -139 53 -237 150 -290 286 -15 39 -36 80 -47 91
-29 29 -91 34 -129 10z m133 -429 l78 -78 -76 -75 -76 -75 -76 77 -76 78 72
74 c40 41 73 74 74 75 2 1 38 -34 80 -76z"/>
<path d="M1530 4295 c-8 -2 -47 -8 -86 -15 -88 -14 -130 -39 -142 -82 -16 -61
21 -131 76 -141 14 -3 66 2 116 10 110 18 313 12 426 -12 113 -25 275 -79 475
-160 233 -94 313 -119 520 -160 215 -44 254 -45 297 -6 28 25 33 36 33 74 0
34 -6 52 -24 71 -28 30 -46 35 -223 67 -71 12 -128 25 -128 29 0 8 117 48 240
82 118 32 365 32 482 0 154 -42 310 -118 403 -197 l40 -33 -30 -32 c-45 -48
-152 -115 -230 -145 -140 -54 -155 -68 -155 -140 0 -50 41 -89 120 -114 197
-63 369 -232 441 -433 34 -96 71 -138 122 -138 50 0 92 32 110 82 l15 43 1
-85 c2 -172 -48 -373 -132 -534 -57 -111 -134 -211 -266 -346 -245 -251 -299
-359 -336 -670 -9 -74 -36 -265 -61 -425 -61 -393 -102 -510 -207 -600 -77
-66 -215 -85 -298 -42 -73 39 -81 64 -164 520 -44 240 -85 433 -100 472 -44
119 -112 196 -215 244 -47 22 -69 26 -150 26 -81 0 -103 -4 -150 -26 -103 -48
-171 -125 -215 -244 -15 -39 -56 -232 -100 -472 -83 -456 -91 -481 -164 -520
-81 -42 -218 -25 -294 37 -72 61 -129 170 -162 314 -19 83 -93 562 -110 716
-20 168 -40 250 -86 345 -51 106 -102 171 -257 331 -144 147 -224 258 -283
392 -128 291 -143 648 -39 952 26 74 85 196 130 266 40 64 40 112 1 156 -25
28 -36 33 -76 33 -43 0 -51 -4 -84 -41 -79 -90 -187 -340 -226 -523 -79 -379
-3 -808 201 -1128 42 -66 172 -223 185 -223 4 0 54 -51 109 -112 135 -150 174
-227 196 -388 44 -326 117 -788 134 -857 74 -289 218 -452 443 -500 147 -31
295 1 388 84 107 97 121 139 209 624 38 212 76 405 85 429 32 91 90 140 165
140 75 0 133 -49 165 -140 9 -24 47 -217 85 -429 88 -485 102 -527 209 -624
157 -140 452 -124 625 34 94 86 164 215 205 382 23 91 89 503 121 757 24 190
32 224 70 300 38 76 85 133 243 298 74 77 157 175 186 218 100 148 171 319
213 512 18 81 22 129 22 292 0 137 -5 217 -16 269 -15 73 -15 75 6 93 46 41
138 97 203 123 128 51 133 54 149 89 21 42 12 95 -19 123 -12 11 -51 30 -85
41 -108 36 -191 89 -282 181 -90 90 -131 156 -175 278 -29 80 -61 113 -111
113 -59 0 -90 -23 -113 -85 -12 -31 -21 -59 -21 -63 0 -5 -6 -16 -13 -26 -12
-17 -18 -15 -78 31 -211 159 -526 254 -799 240 -146 -8 -227 -28 -529 -129
l-244 -82 -61 23 c-287 109 -437 151 -624 176 -99 13 -258 18 -302 10z m2805
-517 c40 -61 159 -181 222 -225 29 -20 53 -39 53 -42 0 -3 -22 -20 -48 -38
-60 -41 -174 -155 -215 -215 -18 -26 -35 -48 -38 -48 -3 0 -26 28 -51 63 -53
71 -129 146 -206 201 l-52 38 47 31 c63 42 191 170 228 229 17 27 31 48 31 48
1 0 14 -19 29 -42z"/>
<path d="M954 4086 c-19 -8 -38 -28 -48 -51 -54 -113 93 -209 177 -115 45 50
33 124 -25 160 -38 23 -61 24 -104 6z"/>
<path d="M1797 2750 c-14 -11 -33 -43 -43 -73 -59 -180 -184 -310 -362 -378
-98 -37 -126 -68 -118 -132 6 -53 26 -72 110 -103 182 -69 308 -196 367 -371
25 -76 55 -103 114 -103 59 0 89 27 114 103 59 175 185 302 367 371 91 34 109
54 109 116 0 64 -19 82 -119 120 -176 67 -302 198 -360 377 -22 66 -54 93
-111 93 -27 0 -51 -7 -68 -20z m173 -471 c25 -25 61 -57 80 -72 l35 -27 -35
-27 c-45 -35 -118 -108 -156 -157 l-30 -38 -44 58 c-25 31 -72 80 -105 107
-33 28 -60 53 -60 57 0 4 27 29 60 57 33 27 80 76 105 107 l44 58 30 -38 c17
-22 51 -59 76 -85z"/>
</g>
</svg>
