<?xml version="1.0" standalone="no"?>
<!DOCTYPE svg PUBLIC "-//W3C//DTD SVG 20010904//EN"
 "http://www.w3.org/TR/2001/REC-SVG-20010904/DTD/svg10.dtd">
<svg version="1.0" xmlns="http://www.w3.org/2000/svg"
 width="200.000000pt" height="200.000000pt" viewBox="0 0 200.000000 200.000000"
 preserveAspectRatio="xMidYMid meet">

<g transform="translate(0.000000,200.000000) scale(0.100000,-0.100000)"
fill="#000000" stroke="none">
<path d="M314 1975 c-73 -36 -246 -215 -280 -289 -48 -105 -43 -230 17 -409
132 -398 487 -821 893 -1066 234 -142 482 -223 631 -208 97 10 157 46 277 167
206 207 203 258 -35 498 -162 164 -203 193 -274 194 -74 0 -114 -22 -216 -121
l-93 -90 -40 23 c-192 109 -436 352 -520 519 l-26 50 97 97 c78 78 99 105 111
146 29 96 2 143 -188 331 -190 188 -245 213 -354 158z m158 -113 c24 -21 98
-95 166 -164 162 -167 162 -161 18 -307 -58 -58 -107 -117 -111 -131 -4 -17 5
-47 28 -95 100 -206 367 -472 593 -589 90 -48 99 -45 230 85 144 142 133 144
335 -58 158 -156 179 -186 162 -230 -12 -31 -194 -218 -237 -244 -171 -101
-624 87 -985 410 -157 140 -352 394 -447 584 -94 186 -142 386 -115 483 14 54
57 107 170 210 109 100 127 104 193 46z"/>
</g>
</svg>
