<svg xmlns="http://www.w3.org/2000/svg" viewBox="0 0 57 70" style="enable-background:new 0 0 57 70" xml:space="preserve"><switch><g><path d="M42.6 26.7c1.8 0 3.3-1.5 3.3-3.3v-2.8h7.4c1.9 0 3.4-1.5 3.4-3.4V3.5c0-1.9-1.5-3.4-3.4-3.4h-5.2c-3.3 0-3.9 0-4.1.1-9.9 4.7-21.3 4.7-31.2 0-.1-.2-.2-.2-.3-.2h-9C1.5 0 0 1.6 0 3.5v13.7c0 1.9 1.5 3.4 3.4 3.4h7.4v2.8c0 1.8 1.5 3.3 3.3 3.3h4.2V28h-.2c-1.3 0-2.5.9-2.8 2.2-.2.7-.1 1.5.3 2.2.4.7 1 1.1 1.8 1.3l.9.2v2.3h-.2c-1.3 0-2.5.9-2.8 2.2-.2.7-.1 1.5.3 2.2.4.7 1 1.1 1.8 1.3l.9.2v2.3h-.2c-1.3 0-2.5.9-2.8 2.2-.2.7-.1 1.5.3 2.2.4.7 1 1.1 1.8 1.3l.9.2v2.3h-.2c-1.3 0-2.5.9-2.8 2.2-.2.7-.1 1.5.3 2.2.4.7 1 1.1 1.8 1.3l.9.2V60c0 5.5 4.5 10 10 10 4.1 0 7.9-2.6 9.4-6.4l.1-.2h.2c1.2.3 2.3-.1 3-1.1.7-1 .8-2.2.1-3.2-.6-1.1-1.6-1.3-2.3-1.4l-.4-.1v-2.3h.3c1 0 1.9-.6 2.4-1.4.5-.9.5-2 0-2.9-.6-1.1-1.6-1.3-2.3-1.4l-.4-.1v-2.3h.3c1 0 2-.5 2.5-1.4.5-.9.5-2 0-2.9-.6-1.1-1.6-1.3-2.3-1.4l-.4-.1v-2.3h.3c1 0 2-.5 2.5-1.4.5-.9.5-2 0-2.9-.6-1.1-1.6-1.3-2.3-1.4l-.6-.4v-6.3h4.2zM39 59.5c.7.2 1.1.8.9 1.5-.1.3-.3.6-.6.8-.3.2-.6.2-.9.1l-11.9-3c-.2-.1-.4 0-.6.1-.2.1-.3.3-.4.5-.1.2 0 .4.1.6.1.2.3.3.5.4L36.2 63l-.1.2c-1.3 3.1-4.3 5.1-7.7 5.1-4.6 0-8.4-3.8-8.4-8.4V59l2.7.7c.2.1.4 0 .6-.1.2-.1.3-.3.4-.5.1-.2 0-.4-.1-.6-.1-.2-.3-.3-.5-.4l-5.3-1.3c-.3-.1-.6-.3-.8-.6-.2-.3-.2-.6-.1-.9.1-.3.3-.6.6-.8.3-.2.6-.2.9-.1L39 59.5zm-19-6.4v-2.2h.2L36.8 55v2.2h-.2L20 53.1zm19-1.8c.7.2 1.1.8.9 1.5-.1.3-.3.6-.6.8-.2.1-.4.2-.6.2h-.3l-20.5-5.1c-.3-.1-.6-.3-.8-.6-.2-.3-.2-.6-.1-.9.1-.3.3-.6.6-.8.3-.2.6-.2.9-.1l20.5 5zm-19-6.4v-2.2h.2l16.6 4.1V49h-.2L20 44.9zM39 43c.7.2 1.1.8.9 1.5-.1.6-.6.9-1.2.9h-.3l-20.5-5.1c-.3-.1-.6-.3-.8-.6-.2-.3-.2-.6-.1-.9.1-.3.3-.6.6-.8.3-.2.6-.2.9-.1L39 43zm-19-6.3v-2.2h.2l16.6 4.1v2.2h-.2L20 36.7zm19.7-1.4c.3.4.3.9.1 1.3-.2.4-.6.6-1.1.6-.2 0-1.5-.3-8.7-2.1l-12.1-3c-.3-.1-.6-.3-.8-.6-.2-.3-.2-.6-.1-.9.1-.3.3-.6.6-.8.3-.2.6-.2.9-.1l12.1 3c.2.1.4 0 .6-.1.2-.1.3-.3.4-.5.1-.2 0-.4-.1-.6-.1-.2-.3-.3-.5-.4l-11-2.7v-1.7h16.8v5.9l-2.4-.6c-.2-.1-.4 0-.6.1-.2.1-.3.3-.4.5-.1.2 0 .4.1.6.1.2.3.3.5.4.9.2 1.7.4 2.3.6l.3.1c2.7.6 2.8.6 3.1 1zM14.1 25.1c-.9 0-1.6-.7-1.6-1.6v-2.8h24.9c.5 0 .8-.4.8-.8 0-.5-.4-.8-.8-.8h-34c-1 0-1.8-.8-1.8-1.8V3.5c0-1 .8-1.8 1.8-1.8h8.9c10.2 4.7 21.9 4.7 32 0h8.9c1 0 1.8.8 1.8 1.8v13.7c0 1-.8 1.8-1.8 1.8H41.1c-.5 0-.8.4-.8.8 0 .5.4.8.8.8h3.2v2.8c0 .9-.7 1.6-1.7 1.6H14.1z" style="fill:#009fa5"/></g></switch></svg>