<svg xmlns="http://www.w3.org/2000/svg" viewBox="0 0 95 50" style="enable-background:new 0 0 95 50" xml:space="preserve"><switch><g><path d="M94 27.3h-4l.8-1.4c.9-1.4 1.7-2.9 2.4-4.5 2.2-5.6 2.8-13.2-2.1-17.9-4.6-4.4-12.8-4.8-18.3-.7l-.5.4-.5-.4c-5.4-4-13.6-3.7-18.3.7-4.2 4.1-4 10-3.4 13.2l.2 1h-5.8l.2-.9c.5-3.2.8-9.1-3.4-13.2C36.6-.9 28.4-1.2 23 2.8l-.5.4-.5-.4c-5.4-4-13.6-3.7-18.3.7-4.9 4.7-4.3 12.4-2.1 18 .7 1.5 1.4 3 2.3 4.4l.8 1.4H.8c-.4 0-.8.4-.8.8s.4.8.8.8h4.8l.2.4c1 2 1.6 4 1.9 6.2.3 2.9.8 5.8 1.5 8.6.5 1.9 1.6 5.8 4.8 5.8 2.5 0 4.5-4.9 5.9-14.5.3-2.3 1.1-3.4 2.5-3.6h.2c1.4.2 2.2 1.4 2.5 3.6 1.3 9.6 3.3 14.5 5.8 14.5 3.2 0 4.3-3.9 4.8-5.8.7-2.8 1.2-5.7 1.5-8.6.3-2.2.9-4.3 1.9-6.2l.2-.4h16.1l.2.4c1 2 1.6 4 1.9 6.2.3 2.9.8 5.8 1.5 8.6.5 1.9 1.6 5.8 4.8 5.8 2.5 0 4.5-4.9 5.8-14.5.3-2.3 1.1-3.4 2.5-3.6h.2c1.4.2 2.2 1.4 2.5 3.6 1.3 9.6 3.3 14.5 5.8 14.5 3.2 0 4.3-3.9 4.8-5.8.7-2.8 1.2-5.7 1.5-8.6.3-2.2.9-4.3 1.9-6.2l.2-.4h5c.4 0 .8-.4.8-.8s-.4-.8-.8-.8zM67.5 17v-4.1h9.7v3.2l-.7.1c-2.6.3-5.3.6-8.1.8h-.9zm8.7.8.9-.1v4.8h-9.7v-3.9l.8-.1c2.7-.2 5.4-.4 8-.7zm-23.9 1.4h1.1c4-.1 7.9-.2 11.6-.5l.9-.1v4.6c0 .4.4.8.8.8h11.2c.4 0 .8-.4.8-.8v-5.8l.7-.1c5.2-.7 8-1.3 8.3-1.4.3-.1.5-.3.6-.5.1-.3 0-.6-.2-.8-.2-.2-.5-.3-.8-.2-.5.1-3.1.6-7.8 1.3l-.9.1V12c0-.4-.4-.8-.8-.8H66.7c-.4 0-.8.4-.8.8v5h-.8c-4 .3-8.2.4-12.5.5h-.7l-.1-.5c-.6-3-1-8.6 2.9-12.3l.1-.1c4.3-4.1 12.4-4 17 .2l.2.2H72.3c.1 0 .2 0 .2-.1h.1c.2-.1.2-.1.2-.2 4.6-4.2 12.7-4.2 17-.1 4.3 4.2 3.6 11.3 1.7 16.2-.6 1.5-1.4 2.9-2.2 4.2-.5.8-1 1.6-1.4 2.4l-.1.3c-1.3 2.4-2.1 4.9-2.5 7.6-.3 2.8-.7 5.6-1.4 8.3-.6 2.4-1.4 4.6-3.1 4.7h-.2l-.2-.1c-1.1-.5-2.8-4.3-4-13.1-.4-3-1.8-4.7-4-5H72c-2.2.3-3.5 1.9-3.9 5-1.3 9.3-3 12.6-3.9 13l-.2.1h-.2c-1.9 0-2.6-2.3-3.3-4.7-.7-2.7-1.2-5.6-1.4-8.4-.3-2.6-1.2-5.1-2.4-7.5l-.2-.4c-.4-.8-.9-1.7-1.4-2.4-.9-1.3-1.6-2.7-2.2-4.2-.1-.2-.1-.4-.2-.5l-.4-.9zm2.2 8.1H40.2L41 26c.9-1.4 1.7-2.9 2.4-4.5.2-.5.4-1 .6-1.7l.2-.6h6.6l.2.6c.2.6.4 1.2.6 1.7.6 1.5 1.4 3 2.3 4.4l.6 1.4zM27.3 12.9V17l-.9-.1c-2.8-.2-5.5-.5-8.1-.8l-.7-.1v-3.2h9.7zm0 5.7v3.9h-9.7v-4.8l.9.1c2.6.3 5.3.5 8 .7l.8.1zM43 17l-.1.7h-.7c-4.3-.1-8.5-.2-12.5-.5h-.8v-5c0-.4-.4-.8-.8-.8H16.9c-.4 0-.8.4-.8.8V16l-.9-.1c-4.4-.6-7-1.1-7.7-1.2-.3-.1-.6 0-.8.2-.2.2-.3.5-.2.8 0 .1.3.3.5.3.1 0 3 .7 8.3 1.4l.7.1v5.8c0 .4.4.8.8.8H28c.4 0 .8-.4.8-.8v-4.6l.9.1c3.7.2 7.5.4 11.6.5h1.1l-.4 1.3c0 .1-.1.3-.1.4-.6 1.5-1.4 2.9-2.2 4.2-.4.7-.9 1.6-1.4 2.4l-.1.3c-1.3 2.4-2.1 4.9-2.5 7.5-.3 2.8-.7 5.6-1.4 8.3-.6 2.4-1.4 4.6-3.1 4.7H31l-.2-.1c-1.1-.5-2.8-4.3-4-13.1-.4-3-1.8-4.7-4-5h-.4c-2.2.3-3.5 1.9-3.9 5-1.3 9.3-3 12.6-3.9 13l-.2.1h-.2c-1.9 0-2.6-2.3-3.3-4.7-.7-2.8-1.2-5.6-1.4-8.4-.3-2.6-1.2-5.1-2.4-7.5l-.2-.4c-.4-.8-.9-1.5-1.4-2.4-.9-1.3-1.6-2.7-2.2-4.2C1.2 16.1.5 8.9 4.8 4.7 9.1.6 17.3.6 21.9 4.8h.1c.1.1.2.1.2.1h.4c.1 0 .2 0 .2-.1l.2.1c.1 0 .1-.1.1-.1 4.6-4.2 12.7-4.2 17-.1C44 8.4 43.6 14 43 17z" style="fill:#009fa5"/></g></switch></svg>