<svg version="1.1" id="Слой_1" xmlns="http://www.w3.org/2000/svg" x="0" y="0" viewBox="0 0 31 25" style="enable-background:new 0 0 31 25" xml:space="preserve"><style>.st0{fill:#2f3237}</style><switch><g><path class="st0" d="m29.2 10 1.2-1.8c.1-.2.1-.4 0-.6-1-1.5-3.2-4.1-4.6-5.2l.1-1.7c0-.2 0-.3-.2-.5-.1-.1-.2-.2-.4-.2-6.5.2-6.7 3.4-6.8 5.7-.1 1.1-.1 1.8-.6 2.2l-.6.3c-2.6.7-3.8.2-5-.3-.7-.3-1.4-.6-2.4-.6-2.6-.2-3.9 1.1-5 2.1-.8.8-1.5 1.5-2.7 1.4-.2 0-.5.1-.6.3-.1.2-.1.5.1.7 1.1 1.3 2.4 1.5 3.2 1.4.2 0 .4 0 .5-.1l-1.1 7.1c-.5-.1-1-.3-1.5-.4-.3-.1-.6-.1-.9-.1-1 0-1.8.6-2 1.5-.1.7.3 1.7 1.5 2 4 1.2 8.2 1.8 12.3 1.8h1.5c4.6-.2 9.1-1.1 13.4-2.8 1.4-.6 1.7-1.6 1.6-2.3-.2-.8-.9-1.4-1.9-1.4-.4 0-.7.1-1.1.2-.8.3-1.7.6-2.5.9L24 9.3c2.2.1 4.5.9 4.5.9.2.1.5 0 .7-.2zm-11.7-.7c.1 0 .1 0 .2-.1 0 1-.3 1.8-1 2.3-.8.6-2.2.5-3.3-.1-.9-.5-1.5-1.4-1.6-2.4 1.3.6 2.8 1.1 5.7.3zm10.1 10.6c.3-.1.5-.2.7-.2.4 0 .7.2.7.4.1.3-.2.7-.9.9-4.1 1.6-8.5 2.5-13 2.7h-1.5c-4 0-8-.6-11.9-1.8-.5-.1-.7-.4-.7-.7 0-.3.3-.5.8-.5.2 0 .4 0 .6.1.7.2 1.5.4 2.2.6.5.1 1.1.3 1.6.4 2.4.5 4.8.7 7.2.7h1.4c4.6-.2 8.9-1 12.8-2.6zm-20.1.9L8.8 18c1.3.2 2.8-.1 3.8-2.1.6.4 1.4 1 2.4 1.2 1.6.4 3.2.3 4.9-.5l.4.8 1.6 2.9c-2.2.5-4.5.8-6.9.9h-1.4c-2 .1-4.1 0-6.1-.4zM23.3 8.1c-.2 0-.3.1-.4.2-.1.1-.2.3-.2.4l.8 11.3c-.1 0-.2.1-.4.1l-2.4-4.5-.4-.8c-.2-.3-.5-.4-.8-.2-.3.2-.4.5-.2.8l.1.3c-3.5 1.5-5.6-.2-6.6-1l-.1-.1c-.1-.1-.3-.2-.5-.1s-.3.2-.4.4c-.7 1.8-1.6 2.4-3.2 2-.3-.3-.6-.1-.7.1l-1.6 3.5c-.2 0-.4-.1-.7-.1l1.2-8.2c0-.2-.1-.5-.3-.6-.2-.1-.4-.1-.6 0 0 0-.4.3-1.1.3-.4 0-.9-.1-1.3-.2.9-.3 1.5-.9 2.1-1.5 1-1 1.9-1.9 4.1-1.8.3 0 .6.1.9.2 0 1.6.8 3.1 2.2 3.9.8.5 1.6.7 2.4.7.8 0 1.5-.2 2.1-.6.7-.5 1.7-1.6 1.4-4 .7-.7.7-1.8.8-2.8.1-2.1.3-4.2 5-4.5l-.1 1.4c0 .2.1.4.3.5 1.1.7 3.2 3.1 4.3 4.7L28.4 9c-.9-.3-3.1-.9-5.1-.9z"/><path class="st0" d="M24.5 4.4c-.4 0-.6.3-.6.6s.3.6.7.6c.4 0 .6-.3.6-.6-.1-.3-.4-.6-.7-.6zM19.4 13.3c-.2-.3-.5-.4-.8-.3-.3.2-.4.5-.2.8.1.2.3.3.5.3.1 0 .2 0 .3-.1.3-.1.4-.5.2-.7z"/></g></switch></svg>