<svg version="1.1" id="Слой_1" xmlns="http://www.w3.org/2000/svg" x="0" y="0" viewBox="0 0 40 40" style="enable-background:new 0 0 40 40" xml:space="preserve"><style>.st0{fill:#009fa5}</style><switch><g><path class="st0" d="M24.9 30.2c8.3 0 15.1-6.8 15.1-15.1S33.2 0 24.9 0 9.8 6.8 9.8 15.1c0 3.6 1.3 7.1 3.6 9.8l.3.4-2.3 2.3-1.2-1.2c-.1-.1-.3-.2-.5-.2s-.4.1-.5.2l-9 9c-.1.2-.2.3-.2.5s.1.4.2.5l3.4 3.4c.1.1.3.2.5.2s.4-.1.5-.2l9-9c.1-.1.2-.3.2-.5s-.1-.4-.2-.5l-1.2-1.2 2.3-2.3.4.3c2.7 2.3 6.2 3.6 9.8 3.6zm-12.9.2-7.9 7.9-2.4-2.4.1-.1 7.9-7.9 2.3 2.5zm-.9-15.3c0-7.6 6.2-13.7 13.7-13.7 7.6 0 13.7 6.2 13.7 13.7 0 7.6-6.2 13.7-13.7 13.7-7.5 0-13.7-6.1-13.7-13.7z"/><path class="st0" d="M31.5 10.9c-.3-.3-.7-.3-1 0L22.4 19l-.1-.1-4.2-4.2c-.1-.1-.3-.2-.5-.2s-.4.1-.5.2c-.1.1-.2.3-.2.5s.1.4.2.5l4.8 4.8c.3.3.7.3 1 0l8.6-8.6c.3-.3.3-.8 0-1z"/></g></switch></svg>