<svg version="1.1" id="Слой_1" xmlns="http://www.w3.org/2000/svg" x="0" y="0" viewBox="0 0 28 25" style="enable-background:new 0 0 28 25" xml:space="preserve"><style>.st0{fill:#2f3237}</style><switch><g><path class="st0" d="M21.1 15.5H6.9c-.6 0-1.1.5-1.1 1.1v3.7c0 .6.5 1.1 1.1 1.1h14.2c.6 0 1.1-.5 1.1-1.1v-3.7c0-.6-.5-1.1-1.1-1.1zm0 4.8H6.9v-3.7h14.2v3.7zM14.9 24.1c-.1-.1-.2-.2-.4-.2s-.3.1-.4.2c-.1.1-.2.2-.2.4 0 .1.1.3.2.4.1.1.2.2.4.2s.3-.1.4-.2c.1-.1.2-.2.2-.4-.1-.2-.1-.3-.2-.4z"/><path class="st0" d="M26.3 11.9h-.9v-2c0-.6-.5-1.1-1.1-1.1h-1.4c.8-.8 1.4-1.9 1.4-3.1 0-1.2-.5-2.3-1.3-3.1L20.3.1c-.2-.1-.4-.1-.6-.1-.2.1-.3.3-.3.5v.3c0 .8-.4 1.6-1 2.1-.5.4-1.1.6-1.7.6H7.1C5.4 3.6 4 5 4 6.8c0 .8.3 1.5.8 2.1H3.6c-.6-.1-1.1.4-1.1 1v2h-.9c-.9 0-1.6.7-1.6 1.6v6.1c0 3 2.4 5.4 5.3 5.4h7c.3 0 .5-.2.5-.5s-.2-.5-.5-.5h-7C3 24 1 22.1 1 19.7v-6.1c0-.3.2-.5.5-.5h24.7c.3 0 .5.2.5.5v6.1c0 2.3-1.9 4.3-4.3 4.3h-5.7c-.3 0-.5.2-.5.5s.2.5.5.5h5.7c2.9 0 5.3-2.4 5.3-5.3v-6.1c.2-1-.5-1.7-1.4-1.7zM7.1 4.7h9.5c.9 0 1.7-.3 2.4-.8s1.1-1.3 1.3-2.1l1.9 1.7c.6.6 1 1.4 1 2.3 0 1.7-1.4 3.1-3.1 3.1H7.1c-1.1-.1-2-1-2-2.1 0-1.2.9-2.1 2-2.1zm17.2 7.2H3.6v-2h20.7v2z"/><path class="st0" d="M18.3 17.9H9.7c-.3 0-.5.2-.5.5s.2.5.5.5h8.6c.3 0 .5-.2.5-.5s-.2-.5-.5-.5zM13.2 5.8H9.3c-.3 0-.6.2-.6.5s.3.6.6.6h3.9c.3 0 .5-.2.5-.5s-.2-.6-.5-.6zM15.8 5.9c-.1-.1-.2-.2-.4-.2-.1 0-.3.1-.4.2-.1.1-.2.2-.2.4 0 .1.1.3.2.4.1.1.2.2.4.2.1 0 .3-.1.4-.2.1-.1.2-.2.2-.4 0-.1-.1-.3-.2-.4z"/></g></switch></svg>