<svg version="1.1" id="Слой_1" xmlns="http://www.w3.org/2000/svg" x="0" y="0" viewBox="0 0 71 70" style="enable-background:new 0 0 71 70" xml:space="preserve"><style>.st0{fill:#009fa5}</style><switch><g><path class="st0" d="M69.4 53.1h-2.6l.4-.6s0-.1.1-.1c.7-1 1.3-2.1 1.7-3.3 1.6-4.2 2.1-9.9-1.6-13.4-3.5-3.3-9.6-3.6-13.7-.5l-.2.2-.2-.2c-4.1-3-10.2-2.8-13.7.5-3.7 3.5-3.2 9.2-1.6 13.4.5 1.1 1.1 2.2 1.7 3.3l.1.1v.1l.4.6h-10l.4-.6s0-.1.1-.1c.7-1 1.3-2.1 1.7-3.3 1.6-4.2 2.1-9.9-1.6-13.4-1.7-1.6-4-2.5-6.3-2.6-2.7-.2-5.1 1-7.3 2l-.5.2c-1.9.8-3.7 1.9-5.3 3.1-1.6 1.3-2.9 3-3.5 5-.6 1.5-1.4 2-3.2 2.8-.8.4-3.1 1.5-2.5 4 .2.8.6 1.6 1.1 2.3l.4.6H1c-.4 0-.8.4-.8.8s.4.8.8.8h3.5l.1.2c.7 1.4 1.1 2.8 1.3 4.4.2 2.1.6 4.3 1.1 6.3.4 1.5 1.2 4.4 3.7 4.4.7 0 3 0 4.5-10.8.2-1.5.7-2.3 1.6-2.5h.2c.6.1 1.4.4 1.6 2.5C20.1 70 22.3 70 23.1 70c2.5 0 3.3-3 3.7-4.4.5-2.1.9-4.2 1.1-6.3.2-1.5.7-3 1.3-4.4l.1-.2H41l.1.2c.7 1.4 1.1 2.9 1.3 4.4.2 2.1.6 4.3 1.1 6.3.4 1.4 1.2 4.4 3.7 4.4.7 0 3 0 4.5-10.8.2-1.5.7-2.3 1.6-2.5h.2c.9.1 1.4.9 1.6 2.5C56.6 70 58.9 70 59.6 70c2.5 0 3.3-3 3.7-4.4.5-2.1.9-4.2 1.1-6.3.2-1.5.7-3 1.3-4.4l.1-.2h3.5c.4 0 .8-.4.8-.8.1-.5-.3-.8-.7-.8zm-40.1-1.6-.1.2c-.3.5-.6 1-.9 1.6-1 1.8-1.7 3.8-1.9 5.8-.2 2-.5 4.1-1 6.1-.4 1.6-1 3.2-2.1 3.3h-.2c-.8-.4-2-3.1-2.8-9.4-.3-2.3-1.4-3.6-3.1-3.8H17c-1.2.1-2.8.9-3.2 3.8-.9 6.7-2.2 9.1-2.7 9.4l-.1.1h-.1c-1.2 0-1.7-1.6-2.2-3.2-.5-2-.8-4-1-6.1-.3-2-.9-4-1.9-5.8-.5-.6-.8-1.1-1-1.5-.5-.7-.9-1.4-1.1-2.2-.2-.6-.2-1.3 1.6-2.2 1.7-.8 3.2-1.5 4-3.7.6-1.7 1.6-3.2 3-4.3 1.6-1.1 3.2-2.1 5-2.9l.5-.2c2.1-1 4.3-2 6.6-1.9 2 .1 3.9.8 5.3 2.2 3.1 3 2.6 8.1 1.2 11.6-.4 1.1-1 2.1-1.6 3.1zm36.5 0-.1.2c-.3.5-.6 1-.9 1.6-1 1.8-1.7 3.8-1.9 5.8-.2 2-.5 4.1-1 6.1-.4 1.6-1 3.2-2.1 3.3h-.2c-.8-.4-2-3.1-2.8-9.4-.4-2.9-1.9-3.7-3.2-3.8H53.3c-1.2.1-2.7.9-3.1 3.8-.9 6.7-2.2 9.1-2.7 9.4h-.2c-1.2 0-1.8-1.7-2.2-3.2-.5-2-.8-4-1-6.1-.3-2-.9-4-1.9-5.8-.3-.6-.7-1.2-1-1.8-.6-1-1.2-2-1.6-3-1.4-3.5-1.9-8.7 1.2-11.6 3.1-3 8.9-2.9 12.3.1l.3.2H54s.1 0 .1-.1c.1 0 .1-.1.2-.1 3.3-3 9.1-3 12.2-.1 3.1 3 2.6 8.1 1.2 11.6l-.7 1.9V50c-.5.5-.8 1-1.2 1.5zM5.3 47.8zM0 17.9c0 1.3.5 2.5 1.3 3.5 1.9 2.3 5.3 4.3 10.1 5.8 2.2.7 4.5 1.3 6.8 1.7 2.3.4 4.6.7 7 .9.9.1 1.7.1 2.6.1 3.1.2 6.2-.5 9-1.9 1.1-.6 1.9-1.6 2.4-2.7l.1-.2h.2c3.2-.3 6.4-.7 9.4-1.3C59 22.1 66 18.5 68.7 13.9v-.1c1-1.6 1.4-3.4 1.2-5.3v-.2c-.4-1.8-1.5-3.5-2.9-4.7l-.1-.1h.1C62.7 0 55.1-.9 45 .9c-4.1.7-8.3 1.7-12.1 2.7h-.2c-3.2-.9-6.6-.5-9.6.9l-.3.1-.2-.2C18.4-.3 10.8-1.4 5.8 1.9c-4.3 2.8-6 10.3-5.8 16zM36.3 4.4c3-.8 6-1.4 9-1.9 8.4-1.5 15-1 19.1 1.2l.2.1V4c.2 1.4-.1 2.7-.7 4l-.2.4-.3-.2C59 5.6 51.9 5.1 42.9 6.6H42l-3 .6h-.2l-.1-.1c-.7-.8-1.6-1.4-2.5-2l-.8-.5.9-.2zm3.9 4.7-.2-.5.5-.1c.4-.1.9-.2 1.3-.2l1.3-.2c8.4-1.5 15.2-1 19.3 1.3l.4.2-.3.4c-3.1 3.5-9.4 6.3-17.7 7.7-.9.2-1.8.3-2.7.5l-.9.1.1-.5c.5-3 .1-6-1.1-8.7zM6.7 3.2C11.2.2 18.5 1.6 22 6.1c.2.2 3.9 5.5 7.9 6.3h.1c.4 0 .8-.3.8-.7 0-.4-.2-.8-.7-.9-2.5-.5-5.1-3.3-6.1-4.5l-.2-.3.5-.2c4.9-2.2 11.2-.7 14.1 3.4 1.4 2 1.9 5.2 1.3 9.2v.3h-.3c-10.8 1.7-18.6 2.2-23.1 1.5-.9-.1-1.7.4-2 1.3v.2l2.9.3c5.7.6 14.8-.2 28-2.5 9.8-1.7 16.5-5 19.5-9.4.8-1.2 1.4-2.7 1.6-4.1l.1-.8.6.6c.8.9 1.4 2 1.7 3.1.1 1.5-.2 3-1 4.3v.1c-2.5 4.3-9.2 7.6-18.8 9.2C42.2 23.4 35 24 29 24c-5.3 0-9.4-.5-12.2-1.5l-2.8-1c-.2.8.2 1.6 1 2 2.8 1.4 7.7 2.1 14.1 2.1 2.3 0 4.8-.1 7.4-.3l1-.1-.6.8c-.2.3-.5.5-.8.7-1.3.8-3.8 1.7-8.2 1.7-.8 0-1.6 0-2.4-.1-2.3-.2-4.5-.5-6.8-.9-2.2-.4-4.5-.9-6.6-1.6-5.7-1.8-8.2-3.9-9.4-5.3-.6-.7-.9-1.6-.9-2.6-.4-5.4 1.3-12.3 4.9-14.7z"/><path class="st0" d="M11.2 5.3c-.1-.3-.4-.6-.8-.6h-.2c-2 .5-5.6 3.2-5.1 9.4 0 .4.4.7.8.7H6c.4 0 .8-.4.7-.9-.5-6.2 3.5-7.6 3.9-7.8.4.1.7-.4.6-.8zM46 38.9c.4-.2.5-.7.3-1.1-.1-.3-.4-.4-.7-.4-.1 0-.2 0-.4.1-2.9 1.7-4.4 5-3.6 8.3.1.4.5.7 1 .6.2 0 .4-.2.5-.3.1-.2.2-.4.1-.6-.6-2.6.6-5.3 2.8-6.6z"/></g></switch></svg>