<svg version="1.1" id="Слой_1" xmlns="http://www.w3.org/2000/svg" x="0" y="0" viewBox="0 0 25 25" style="enable-background:new 0 0 25 25" xml:space="preserve"><style>.st0{fill:#2f3237}</style><switch><g><path class="st0" d="M24.6 6.9c-1.2-.3-2.2-1.3-2.5-2.5-.1-.3-.3-.4-.6-.4s-.5.2-.5.4-.1.4-.2.6c-1.1-1-2.6-1.5-4.2-1.5-1 0-2 .4-2.9.7-.4.1-.8.3-1.1.4-1.6-.7-3.8-1.4-5.7-.9-.3 0-.5.3-.4.6.1.3.4.5.7.4 1.7-.3 2.9 0 5.1.9 1.1.5 2.2.7 3.3.9.1 0 .3 0 .4-.1.1-.1.2-.2.2-.4 0-.3-.2-.6-.5-.6l-1.5-.3c.8-.3 1.6-.6 2.4-.6 1.4 0 2.6.4 3.5 1.3-.5.5-1 .8-1.7 1-.2.1-.4.3-.4.5s.2.5.4.5c1.2.3 2.2 1.3 2.5 2.5.1.2.3.4.5.4.3 0 .5-.2.5-.4 0-.1.1-.2.1-.3.1 1.8-.6 3.5-1.8 4.7-1.6 1.5-1.7 2.2-1.9 3.7v.4l-.3 2.7c-.3 1.7-.8 2.5-1.9 2.5-.6 0-.9-.3-1-.9l-.6-3.5c-.3-1.8-1.4-2-2-2-.6 0-1.7.3-2 2L9.8 23c-.1.6-.4.9-1 .9-1.1 0-1.6-.7-1.9-2.5l-.4-2.5v-.3c-.2-1.5-.3-2.1-1.9-3.7-2.1-1.9-2.4-5.6-.8-8 .3-.2.2-.6 0-.7-.1-.1-.3-.2-.4-.1-.2 0-.3.1-.4.2-2 2.8-1.6 7.2.9 9.4 1.4 1.3 1.4 1.7 1.5 3v.4l.4 2.5c.2.9.6 3.4 3.1 3.4 1.1 0 1.9-.7 2.1-1.8l.6-3.5c.2-1.1.8-1.1.9-1.1s.7 0 .9 1.1l.6 3.5c.2 1.2 1 1.8 2.1 1.8 2.5 0 2.8-2.5 3-3.4l.4-2.5v-.4c.1-1.3.2-1.7 1.5-3 1.8-1.7 2.6-4.3 2-6.9.4-.4 1-.7 1.5-.9.3 0 .5-.2.5-.5s-.2-.4-.4-.5zm-1.5.5c-.6.4-1.2.9-1.5 1.5-.4-.6-.9-1.2-1.5-1.5.6-.4 1.2-.9 1.5-1.5.3.6.9 1.2 1.5 1.5z"/><path class="st0" d="M6.8 14.6c1 .3 1.8 1 2 2 .1.2.3.4.5.4.3 0 .5-.2.5-.4.3-1 1-1.8 2-2 .2-.1.4-.3.4-.5 0-.3-.2-.5-.4-.5-1-.3-1.8-1-2-2-.1-.2-.3-.4-.5-.4-.3 0-.5.2-.5.4-.3 1-1 1.8-2 2-.2.1-.4.3-.4.5s.1.5.4.5zm1.4-.5c.4-.3.8-.7 1.1-1.1.3.4.7.8 1.1 1.1-.4.3-.8.7-1.1 1.1-.3-.4-.7-.8-1.1-1.1zM2.6 5.2c.2 0 .5-.2.5-.4.3-.8.9-1.4 1.7-1.7.2-.1.4-.3.4-.5s-.1-.5-.4-.5C4 1.9 3.4 1.2 3.1.4c0-.2-.2-.4-.5-.4-.2 0-.5.2-.5.4-.2.8-.9 1.5-1.7 1.7-.2 0-.4.3-.4.5 0 .3.2.5.4.5.8.3 1.5.9 1.7 1.7 0 .2.3.4.5.4zm-.8-2.6c.3-.2.6-.5.8-.8.2.3.5.6.8.8-.3.2-.6.5-.8.8-.2-.3-.5-.6-.8-.8zM5 4.5c-.3 0-.5.2-.5.6 0 .4.3.5.5.5.3 0 .5-.2.5-.5.1-.3-.2-.6-.5-.6z"/></g></switch></svg>