<svg version="1.1" id="Слой_1" xmlns="http://www.w3.org/2000/svg" x="0" y="0" viewBox="0 0 63 70" style="enable-background:new 0 0 63 70" xml:space="preserve"><style>.st0{fill:#009fa5}</style><switch><g><path class="st0" d="M57.7 4.9C54.5 1.8 49.7 0 44.6 0c-4.8 0-9.4 1.6-12.9 4.4l-.2.2-.2-.2C27.7 1.6 23.1 0 18.3 0 13.2 0 8.4 1.8 5.2 4.9-.2 10.1-1 21.7 1 30.5c.4 1.8 1.4 3.5 2.8 4.7 2.3 2 6.9 4.6 16 5.8h.3l1.9 9.1-2.2.7c-1.1.3-2 1.2-2.2 2.4-.2 1.1.1 2.3 1 3.1.9.7 2.1 1 3.2.6l1.5-.5.7 3.2-2 .6c-1.6.6-2.4 2.3-1.9 3.9.4 1.3 1.6 2.2 3 2.2.3 0 .6 0 .9-.1l1.4-.4.1.3c1.1 2.4 3.4 3.9 6 3.9h.7c2.9-.3 5.2-2.4 5.7-5.2l.7-3.3 3.2-1c1.5-.5 2.4-2 2.1-3.6-.3-1.6-1.7-2.7-3.3-2.5h-.5l.8-3.7 3.4-1.1c1.5-.5 2.4-2.1 2.1-3.7-.3-1.4-1.6-2.5-3.1-2.5h-.4l-.5.1.5-2.4h.3c9.1-1.2 13.7-3.8 16-5.8 1.4-1.2 2.4-2.9 2.8-4.7 1.9-8.9 1.1-20.5-4.3-25.7zM21.8 41.2h.5c2.9.3 6 .4 9.2.4 3.2 0 6.3-.1 9.2-.4h.5l-.6 2.9-17 5.6-1.8-8.5zm14.5 23.2c-.5 2.3-2.5 4-4.9 4-1.9 0-3.6-1-4.4-2.7l-.2-.4.4-.1 9.6-3.1-.5 2.3zm4-8.5c.4-.1.8-.1 1.2.1.6.3.9.9.8 1.5 0 .6-.5 1.2-1.1 1.4l-17.8 5.8c-.2.1-.3.1-.5.1-.4 0-.7-.1-1-.4-.4-.4-.6-1-.5-1.5.1-.6.5-1 1.1-1.2l17.8-5.8zm-15.5 0 14.3-4.7-.8 3.7-.2.1-12.6 4.1-.7-3.2zm18-10.8c.7-.2 1.4.1 1.8.7.3.5.3 1 .1 1.5-.2.4-.5.7-.9.8l-22.5 7.3c-.2 0-.3.1-.4.1-.7 0-1.3-.4-1.5-1.1-.3-.8.2-1.7.9-1.9l22.5-7.4zm17.5-15C60 31.6 59.2 33 58 34c-2.2 1.9-6.8 4.4-16 5.5-3.3.4-6.7.6-10.1.6H31c-3.4 0-6.8-.2-10.1-.6-9.2-1.1-13.8-3.6-16-5.5-1.2-1-2-2.4-2.3-3.9C.7 22 1.4 10.8 6.3 6.1c3.3-3 7.6-4.6 12-4.4h.3c4.5 0 8.9 1.6 12.4 4.6.8.7 7.6 7.1 13.5 7.1.4 0 .8-.4.8-.8s-.4-.8-.8-.8c-4.4 0-9.5-4-11.5-5.8l-.3-.3.3-.3c3.2-2.4 7.3-3.8 11.6-3.8 4.7 0 9 1.6 12 4.4 4.9 4.8 5.6 16 3.7 24.1z"/><path class="st0" d="M11.5 8.4c-.1-.2-.4-.4-.7-.4-.1 0-.2 0-.3.1-.1 0-7.9 4-4.8 15.3.1.3.4.6.8.6.2 0 .5-.1.6-.3.2-.2.2-.5.1-.7-2.7-9.9 3.7-13.3 4-13.4.3-.3.5-.8.3-1.2zM14.9 5.9c-.4 0-.8.4-.8.8s.4.8.8.8.8-.4.8-.8-.3-.8-.8-.8z"/></g></switch></svg>