<svg version="1.1" id="Слой_1" xmlns="http://www.w3.org/2000/svg" x="0" y="0" viewBox="0 0 47 70" style="enable-background:new 0 0 47 70" xml:space="preserve"><style>.st0{fill:#009fa5}</style><switch><g><path class="st0" d="M46.4 14.7c-.1-1.5-.4-3-.9-4.4-.2-.5-.7-.7-1.2-.6-.2.1-.4.2-.5.5-.1.2-.1.5 0 .7.5 1.3.7 2.6.8 4v.1c0 2.4-.9 4.9-2.4 6.6L35.8 29H10.5l-6.3-7.3c-1.6-1.8-2.5-4.4-2.4-6.8.3-7.2 6.3-13.1 13.5-13.1 2.7 0 5.2.8 7.4 2.2.8.5 1.6 1.2 2.2 1.9.3.3.9.4 1.3 0 .4-.3.4-.9 0-1.3-.3-.3-.6-.6-.9-.8l-.6-.5.8-.3c1.8-.8 3.7-1.2 5.6-1.2 1.6 0 3.2.3 4.7.9.2.1.5.1.7 0 .2-.1.4-.3.5-.5.1-.2.1-.5 0-.7-.1-.2-.3-.4-.5-.5-4.2-1.6-9.1-1.2-13 1.1l-.2.1-.2-.1C20.6.7 18 0 15.3 0c-4 0-7.7 1.5-10.6 4.4C1.8 7.1.2 10.9 0 14.8c0 2.9 1 5.8 2.9 8L8.2 29l-.6.2C6 29.8 5 31.3 5 33c0 2.2 1.8 4 4 4h2.3l.1.4c0 .2.3 2.6.5 3.8l.1.5h-1c-2.2 0-4 1.8-4 4s1.8 4 4 4h2l.1.4.6 4.4-.4.1c-1.8.4-3.2 2-3.2 3.9 0 2.2 1.8 4 4 4h.7l.1.4c.8 4 4.4 6.9 8.4 6.9s7.6-2.9 8.4-6.9l.1-.4h.7c2.2 0 4-1.8 4-4 0-1.9-1.3-3.5-3.2-3.9l-.4-.1.6-4.8h2.1c2.2 0 4-1.8 4-4s-1.8-4-4-4h-1l.1-.5c.2-1.3.5-3.6.5-3.8l.1-.4h2.3c2.2 0 4-1.8 4-4 0-1.7-1-3.2-2.6-3.8l-.6-.2.3-.4 5-5.9c1.9-2.2 2.9-5.1 2.9-8-.2.1-.2.1-.2 0zM29.7 63.4c-.9 2.8-3.5 4.8-6.5 4.8s-5.6-2-6.5-4.8l-.2-.6h13.3l-.1.6zm4.9-4.7c0 1.2-1 2.2-2.2 2.2H14c-1.2 0-2.2-1-2.2-2.2s1-2.2 2.2-2.2h18.3c1.3 0 2.3 1 2.3 2.2zm-19.8-8.8h16.7l-.6 4.8H15.5l-.7-4.8zm20.7-6.2c1.2 0 2.2 1 2.2 2.2s-1 2.2-2.2 2.2H10.9c-1.2 0-2.2-1-2.2-2.2s1-2.2 2.2-2.2h24.6zm-22.4-6.6h20.1l-.1.5c-.1.8-.3 2-.5 3.8l-.1.4H13.8l-.1-.4c-.2-1.8-.4-3-.5-3.8l-.1-.5zm26.5-4c0 1.2-1 2.2-2.2 2.2H9c-1.2 0-2.2-1-2.2-2.2 0-1.2 1-2.2 2.2-2.2h28.4c1.2 0 2.2 1 2.2 2.2z"/><circle class="st0" cx="41.3" cy="5.3" r="1.2"/></g></switch></svg>