<svg xmlns="http://www.w3.org/2000/svg" viewBox="0 0 87 60" style="enable-background:new 0 0 87 60" xml:space="preserve"><switch><g><path d="M86.6 51.8c0-.2-.1-.5-.3-.6-.3-.3-.9-.3-1.2 0l-.7.7-3.6-3.6.7-.7c.2-.2.3-.4.3-.6 0-.2-.1-.5-.3-.6L75 39.9h-.2v-.2l-3-3c-.3-.3-.9-.3-1.2 0l-.7.7-2.6-2.6.4-.3c9.5-6 18.4-15.3 18.8-15.7.2-.2.3-.5.2-.7 0-.3-.2-.5-.5-.6 0 0-13.4-7.6-22-12.9C60.5 2.1 57.1 0 53.6 0c-2.4 0-4.9.8-6.9 2.2-1 .7-2.2 1.1-3.4 1.1-1.2 0-2.4-.4-3.4-1.1C37.9.8 35.4 0 33 0c-3.8 0-7.5 2.5-11.5 5.2-1.3.8-2.5 1.6-3.7 2.3C9.1 12.8.8 17.1.5 17.3c-.3.2-.4.4-.5.7 0 .3 0 .6.2.7 0 0 4.8 5 11.1 10.1.4.3.9.2 1.2-.1.1-.2.2-.4.2-.6 0-.2-.1-.4-.3-.6-3.6-2.9-6.8-5.9-8.8-7.8L3 19h27.9c1.7 0 3.3.7 4.4 1.8 2.2 2.2 5.3 3.7 8 3.7s5.9-1.5 8-3.7c1.1-1.2 2.7-1.8 4.4-1.8h27.9l-.7.7C78.8 23.6 70.8 30.9 63.2 35l-.3.1-6-6c-.3-.3-.9-.3-1.2 0-.2.2-.3.4-.3.6 0 .2.1.5.3.6l5.5 5.5-.5.2c-2.7 1.2-5 1.8-7.1 1.8-1.4 0-2.9-.3-4.2-.9-3.9-1.7-8.4-1.7-12.3 0-1.3.6-2.8.9-4.2.9-3.9 0-9.4-2.4-15.7-6.9-.4-.3-.9-.2-1.2.2-.1.2-.2.4-.1.7 0 .2.2.4.4.6 6.8 4.8 12.4 7.2 16.8 7.2 1.7 0 3.4-.4 4.9-1.1 3.4-1.5 7.4-1.5 10.8 0 1.6.7 3.3 1.1 4.9 1.1 1.9 0 4.2-.5 6.6-1.5l.7-.3-.1.7c-.1.8.1 1.7.7 2.2l2.3 2.3-.7.7c-.3.3-.3.9 0 1.2l9.8 9.8c.3.3.9.3 1.2 0l.7-.7 3.6 3.6-.7.7c-.3.3-.3.9 0 1.2.3.3.9.3 1.2 0l7.3-7.3c.2.1.3-.1.3-.4zM55.7 17.2c-.4 0-.8 0-1.2.1l-.8.1.3-.7c.2-.4.4-.9.5-1.3.2-.5-.1-1-.5-1.1-.5-.2-1 .1-1.1.5-.9 2.6-2.7 4.5-2.9 4.7-1.8 1.9-4.6 3.2-6.8 3.2s-5-1.3-6.8-3.2c-.1-.1-2-2-2.9-4.7-.1-.2-.2-.4-.4-.5-.2-.1-.4-.1-.7 0-.2.1-.4.2-.5.4-.1.2-.1.4 0 .7.1.4.3.8.5 1.3l.3.7-.7-.1c-.4-.1-.8-.1-1.2-.1H4.4l1.4-.8C9 14.7 13.8 12 18.7 9c1.2-.8 2.5-1.6 3.6-2.4 3.8-2.5 7.3-4.9 10.6-4.9 2.1 0 4.2.7 5.9 1.9 1.4.9 2.9 1.4 4.5 1.4s3.1-.5 4.4-1.4c1.7-1.2 3.9-1.9 5.9-1.9 2.9 0 6.1 1.9 9.1 3.9l.1.1 1.2.8h.1l.2.1c4.8 3 13.7 8.4 16.4 9.9l1.4.8H55.7zm7.1 22.4c-.3-.3-.3-.9 0-1.2l2.2-2.2c.2-.2.4-.2.6-.2.2 0 .4.1.6.2l2.3 2.3-3.4 3.4-2.3-2.3zM73.5 53 65 44.5l6.1-6.1 8.5 8.5-6.1 6.1zm6.2 3.6L76.1 53l3.4-3.4 3.6 3.6-3.4 3.4z" style="fill:#7ccfae"/></g></switch></svg>