<svg version="1.1" id="Слой_1" xmlns="http://www.w3.org/2000/svg" x="0" y="0" viewBox="0 0 70 70" style="enable-background:new 0 0 70 70" xml:space="preserve"><style>.st0{fill:#7ccfae}</style><switch><g><path class="st0" d="M62.3 42c4.2 0 7.6-3.4 7.6-7.6V8.6c0-2.8-1.4-5.4-3.6-6.7-2.3-1.4-5-1.5-7.4-.3l-.7.3-.6-.4C56.2.5 54.5 0 52.7 0c-2.6 0-5 1.1-6.7 3.1L38 13 8.5 42.5c-2.3 2.3-2.8 5.9-1.2 8.7l.5.9L5 54.5c-3.1 2.8-5 6.8-5 11.1V69c0 .5.4.9.9.9s.9-.4.9-.9v-3.3c0-3.8 1.6-7.4 4.5-9.8l2.9-2.5.8.5c2.9 1.7 6.5 1.3 8.9-1.1l29.3-29.3 10-8.2c3.2-2.6 4.1-7.1 2.1-10.8L59.5 3l1.6-.4c1.7-.4 3.5.1 4.9 1.2 1.4 1.1 2.1 2.7 2.1 4.5v26.1c0 3.2-2.6 5.8-5.8 5.8H50.1c-3.8 0-7 2.7-7.5 6.3-.3 2.1.4 4.2 1.8 5.8 1.4 1.6 3.4 2.5 5.5 2.5h6.4c.5 0 .9-.4.9-.9s-.4-.9-.9-.9h-6.1c-2.9 0-5.4-2.2-5.7-4.9-.2-1.6.3-3.1 1.4-4.2 1-1.1 2.5-1.8 4.1-1.8h12.3zm-42.4 7.1-2.3 2.3c-1 1-2.4 1.6-3.9 1.6s-2.8-.6-3.9-1.6c-1-1-1.6-2.4-1.6-3.9s.6-2.8 1.6-3.9l2.4-2.4.1.1 7.6 7.8zm26.4-26.4L21.2 47.8l-.1-.1-7.7-7.7.1-.1 25.1-25.1.1.1 7.6 7.8zM59.5 8.9c-.1 1.9-1 3.7-2.5 4.9l-9.3 7.6-7.8-7.8.1-.1 7.5-9.2c1.2-1.5 3-2.4 4.9-2.5 1.9-.1 3.8.6 5.2 2 1.3 1.3 2 3.2 1.9 5.1zM15.7 68.1h-2.1c-.5 0-1 .4-1 1 0 .5.4 1 1 1h2.1c.5 0 1-.4 1-1s-.5-1-1-1zM26.4 68.1h-2.1c-.5 0-1 .4-1 1 0 .5.4 1 1 1h2.1c.5 0 1-.4 1-1-.1-.6-.5-1-1-1zM37 68.1h-2.1c-.5 0-1 .4-1 1 0 .5.4 1 1 1H37c.5 0 1-.4 1-1s-.5-1-1-1zM47.6 68.1h-2.1c-.5 0-1 .4-1 1 0 .5.4 1 1 1h2.1c.5 0 1-.4 1-1s-.4-1-1-1zM58.3 68.1h-2.1c-.5 0-1 .4-1 1 0 .5.4 1 1 1h2.1c.5 0 1-.4 1-1-.1-.6-.5-1-1-1zM68.9 68.1h-2.1c-.5 0-1 .4-1 1 0 .5.4 1 1 1h2.1c.5 0 1-.4 1-1s-.5-1-1-1z"/></g></switch></svg>