<svg version="1.1" id="Слой_1" xmlns="http://www.w3.org/2000/svg" x="0" y="0" viewBox="0 0 162 60" style="enable-background:new 0 0 162 60" xml:space="preserve"><style>.st0{fill:#00aaad}</style><switch><g><path class="st0" d="m6.8 33 10.3 22 10.3-22 3.4 25.7h-2.2l-2.4-18.3-9.1 19.3L8 40.5 5.6 58.7H3.4L6.8 33zM35.3 34h13.2v2H37.7v7.9h10.5v2H37.7v10.9h10.8v2H35.3V34zM53.6 34h6.1c8.8 0 13.5 5.6 13.5 12.4 0 5.2-3.1 12.4-13.5 12.4h-6.1V34zm5.9 22.8c8 0 11.2-4.8 11.2-10.4 0-6.3-4.4-10.4-11.2-10.4H56v20.8h3.5zM78.4 34h2.4v24.7h-2.4V34zM97.6 38.2c-.6-1.4-1.9-2.9-4.5-2.9-3.5 0-4.4 2.3-4.4 3.8 0 2.8 2.8 4 5.6 5.3 2.7 1.2 6.4 2.8 6.4 7.5 0 4.2-3.2 7.5-7.9 7.5-4.9 0-7.1-3.4-8-5.5l2.3-1.1c.7 2.1 2.5 4.7 5.9 4.7 3.1 0 5.2-2.4 5.2-5.4 0-3.1-2.2-4.3-5.5-5.8-3-1.4-6.4-3.3-6.4-7.1 0-2.2 1.2-5.8 6.8-5.8 1.9 0 4.9.4 6.5 3.7l-2 1.1zM116 38.2c-.6-1.4-1.9-2.9-4.5-2.9-3.5 0-4.4 2.3-4.4 3.8 0 2.8 2.8 4 5.6 5.3 2.6 1.2 6.4 2.8 6.4 7.5 0 4.2-3.2 7.5-7.9 7.5-4.9 0-7.1-3.4-8-5.5l2.3-1.1c.7 2.1 2.5 4.7 5.9 4.7 3.1 0 5.2-2.4 5.2-5.4 0-3.1-2.2-4.3-5.5-5.8-3-1.4-6.4-3.3-6.4-7.1 0-2.2 1.2-5.8 6.8-5.8 1.9 0 4.9.4 6.5 3.7l-2 1.1zM132.1 33.3l11.1 25.4h-2.5l-3.4-8.1h-10.4l-3.4 8.1H121l11.1-25.4zm4.4 15.4-4.3-10.1-4.3 10.1h8.6z"/><g><linearGradient id="SVGID_1_" gradientUnits="userSpaceOnUse" x1="-.734" y1="14.305" x2="162.389" y2="14.305"><stop offset="0" style="stop-color:#0093aa"/><stop offset=".32" style="stop-color:#2da4a1"/><stop offset=".78" style="stop-color:#68bb95"/><stop offset="1" style="stop-color:#7fc490"/></linearGradient><path d="M128 14.5v-.4c-.4-.1-.4.2-.4.4h.4z" style="fill:url(#SVGID_1_)"/><linearGradient id="SVGID_2_" gradientUnits="userSpaceOnUse" x1=".029" y1="17.188" x2="162.169" y2="17.188"><stop offset="0" style="stop-color:#0093aa"/><stop offset=".32" style="stop-color:#2da4a1"/><stop offset=".78" style="stop-color:#68bb95"/><stop offset="1" style="stop-color:#7fc490"/></linearGradient><path d="M120.5 17.7h.4c.2 0 .2-.2.4-.2.1-.4.9-.1.8-.6-.2 0-.2-.1-.2-.2-.8.2-.5.4-1.5.2v.2c0 .3-.1.3.1.6z" style="fill:url(#SVGID_2_)"/><linearGradient id="SVGID_3_" gradientUnits="userSpaceOnUse" x1="-.15" y1="14.858" x2="162.231" y2="14.858"><stop offset="0" style="stop-color:#0093aa"/><stop offset=".32" style="stop-color:#2da4a1"/><stop offset=".78" style="stop-color:#68bb95"/><stop offset="1" style="stop-color:#7fc490"/></linearGradient><path d="M137.3 12.5c-.3.1-.2.5-.2.8-.4 0-.5-.1-.6-.4v-.2c-.2 0-.4-.9-.6-.2h-.2v.2h-.2c-.4 0-.6 0-.8-.2v-.8c-.3 0-.8-.1-.8.2-.8-.3-1.4-2.4-2.3-1.2 0 .1 0 .2.2.2h.2c0 .2-.2.2-.2.4v.4c.2.1.1.4.4.4v.8h-.4c-.9-.1-1.5.1-1.2 1.1-.3.1-.1.6-.4.6-.4 0-.1-.9-.6-.8-.2 0-.2.1-.2.2-.1.2-.2.5-.4.6v.2c-.6-.1-.4.6-1 .4-.9-.3-1.1 1-.4 1 0-.3 1.3-.4 1.3 0h.2c.5.5 1.7-.1 2.1-.4h2.3v-.2h.1v.1l-.2.3-.4.1-.3.1h-.3l-.5.4-.4.4-.7.1-.7-.1-.2-.1h-.5l-.5.3-.4-.1-.5.3-.3.1-.4.1h-.4l-.3.3-.1.4-.4.2h-.3l-.3.2-.4.1-1 .2-.4.1h-.8v-.4l-.1-.2h-.3l-.5.2-.4.3-.3.1-.3.3h-.5l-.3.2-.7.1-.2.3h-.1l-.5-.1h-1l-.3.2-.5.3v.1l.1.1v.2l-.1.1h-1.6l-.3.1-1.1.1-.4-.2h-.5l-.6.1-.5-.1-1.6-.4-.1-.7-.5-.2-.3.2h-.5l-1-.1-.2.1c0-.1.1-.2.1-.2.1-.2.9-.7 1-.2h1.6c.6.1.5-.4.6-.8v-.2h-2.5c0-.2 0-.4.2-.4.2-.2.7-.2 1.2-.2.3 0 .8.1.8-.2.8-.8 2.4-.8 3.1-.7v-.2c.5-.4 1.4-.2 1.7.2v.2H116.1c0-.2.3-.2.6-.2v-.2h.4c.4.1 1.4-.3 1.5.2-.1 0-.2 0-.2.2-.1 0-.2 0-.2.2h-.2v.4c-.2 0-.2-.2-.4-.2v.2c-1.1-.2-.9.6 0 .4v.2c.4 0 .4-.3.8-.2.2 0 .2-.1.2-.2.8-.1.9-.9 1.4-1.3h-.2c-.1-.6 1.1.1 1-.4h.2c.2 0 .2-.2.4-.2h.4c.4.1.4-.2.4-.4v-.2c-.3-.2-.9-.2-.8-.8 0-.2-.2-.2-.2-.4-.2 0-.2.2-.4.2v.2c-.4-.1-.6.2-.8.2 0-.4-.7-.1-.6-.6h-.2c.1-.3-1-.3-.8 0h-1c-.1.3-.5.2-.8.2h-.8c0 .2-.4.1-.4.4-.4 0-.7.1-.8.4h-.2c0 .5-.5.5-1 .4h-.2c-.3.3-.8.3-1 0 0-.1 0-.2-.2-.2h-1.2c-.7.1.5.8-.2.8v.2H104.5v.2h-1.9v-.2h-2.7c-.2.1-.3.2-.6.2 0-.2-.1-.2-.2-.2V15.8c.2 0 .2-.3.2-.4h-2.2v.4c0 .1 0 .2.2.2v.2h-2v-.4h.2c.6.2 1.8-.4.8-.4v-.2h-.8c0-.5-.7-.1-1-.2h-1.7.3l.2-.2c-.1-.1-.1-.1-.1-.2l-1.2.5-.6.2-.5.2-.5-.4-.1-.2-.3-.2h-.2l-.1.1-.4.1-.7-.9h-.1l-.2-.3.1-.2.4-.1.2-.1.1-.4-.2-.2h-.5l-.4.3-.8.1-1.4-.1-.8-.1-.1-.1-.4.1-.7-.3-.3-.3h-.1l-.2-.2H83l-.3-.2h-.5l-.2-.2v-.2l-.1-.3-.4-.2-.5-.1-.8-.5-.6-.2-.6-.1h-.5l-.6.1-.1-.2v-.1l-.2-.1v-.1l-.5-.6h-.2l-.3.1v.2l.2.2-.1.1h-.9l-.3-.3.2-.1.3-.2.1.1h.2V9l-.3-.2-.5-.1-.3-.1-.5-.4h-.2l-.3.3-.3.1-.7-.2-.4.3-.4.1-.6-.3-1.4-.8h-.2l-.5-.3-.9-.7-.1-.4.2-.1 1.4.1.3-.1v-.4l-.3-.2-.6-.1-.4-.2H68l-.2-.1V5l-.5-.5-.9-.2L66 4l-.6-.3-.4-.1-.7-.3-.5-.1-.6-.3-.2.1-.4.3H62l-.1-.3-.3-.1-.5.1-.2-.2h-.2l-.1.1-.4.1H60l-.6.1-.6.4.3.1.3.3-.1.2-.5.2h-.6l-.3.2h-.3l-.2-.1-.1.1-.3.1-.4-.2h-.4l-.2-.2-.1-.5-.2-.2h-.2l-.3.1-.1.5h-.5l-.4-.3H54v.1l-.1.1h-.8l-.3.1-.4.1-.9.2-.6.2-.6.3-.5.4h-.5l-.5.3-.9.2-.5.1-1 .1-1 .6-.1.3-.5.6-.1.5-.1.2-.5.2-.2.5h-.1l-.6.6-.3.1-.6.4v.2h.1l1-.1V10l.3-.3.3-.1.9-.6.5-.3.5-.3.4-.1 1-.5.1.1v.2L46 9.2l-.6.3-.6.6-.6.2-.4.3-.3.4-.1-.1h-.2l-.6.1-.1.3-.3.3-.5.4-.1-.1-.3-.2h-.4l-.3.2-.2.4.2.3h.2l.2-.2h.6l.1-.2.7-.3 1-.1.4.1.2.3v.3l-.5.2-.7.7-.4.1-.1.2-.1.5-.5-.1-.2.1-.2.2-.1.5-.5.5h-.2l-.1-.1-.6-.1-.5.2-.4.3-.4.3-.7.2-.2.3h-.1l-.6.4h-.6l-.5-.4v-.6l.3-.3.4-.1.3-.3v-.3l.1-.1h.5l.4.1.6-.5h.3l.7-.6.1-.5-.4-.3-.4-.1-.5.4-.1.1-.2.6-.2.1-.2-.2-.4-.1-.1.1-.1.4-.5.2-.7.2-.3.3h-.2l-.2-.1-.3-.5-.6-.4-.3-.5V13l.3-.4h.1l-.2-.2-.7-.5-.2-.5-.3-.6.2-.3h.2l.4-.3.2-.2v-.1l-.1-.1H33l-.5-.2-.4-.3v-.2l-.1-.4-.5-1.1-1.8-1.8-.7-.5-.6-.9.6-.6v-.2h-.6l-.2.1h-1.5l-.5-.3-.3-.2-.4-.1-.6.4-.7.3-.3.3-.4.2-.5.2-.2.3-.8.9-.5.2h-1.1l-.2.2-.5.8h-.1l-.4.5H19l-.2.2h-.1l-.3.2-.4.5-.2.1-.3.4-.5.1-.3.2h-.2l-.4.2-.3.5-.5.3-.4.4-.2.1-.6.5-.6.3-.3.3-.5.2-.1.3-.3.3v.1l-.6.4-.6.5-.9.7v.1l-.5.7h-.1l-.1.2-.9.6-.3.4H7.2l-.2.2-.3.7-.3.3h-.1l-.1.2-.6.3H5l-.8.5-.6.2-.1.1h-.2l-.5.6-.3.1-.2-.1-.4-.1-.5-.4-.1-.2-.3-.3H.6l-.1.5.4.4.4.8.3.5.1.3.9.9 1.6 1.5.6.8.5.7.5.3.8.9h.1l.5.5.5.5.2-.2v-.2l-.1-.1v-.3l.2-.4h.2l.6-.3 1.5-.5-.3-.5-.1-.5.2-.4h.1l.5-.4.3-.6.4-.2.3-.5.8-.6v-.6l.2-.2h.4l.8-.7.6-.6.3-.3h.2l.1-.2.5-.3.9-.2.6-.8.2-.1.2-.6.2-.3.5-.2.2-.2.2-.3.6-.1.2-.3.4-.4 1.1-.2.6-.5.2-.4.5-.3-.1-.1-.3-.3v-.2l.2-.3.5-.3.3.2v.2l-.1.1-.1.3.5-.1.2-.2.3-.2.2.4h.3l.2-.2h.2l.1.1.1.3-.2.5-.1.4-.6.2-.6.6-.6.9-.9.5-.2.6-.6.4h-.3l-.3.3-.1.4-.2.2h-.2l-.3.2-.8.6-.2.4-.3.2-.1.6-.4.5h-.1l-.2-.2-.2-.2h-.4l-.2.2-1 .7v.1l-.1.2.2.3.2.1.1.2-.2.3v.2l.1.1.7-.6.8-.7.3-.5.5-.2.9-1h.1l.2-.2.6-.5 1-1 .4-.3.9-.9.2-.1.3-.2.7-.6.4-.2.6-.6.3-.2.4-.3h.2l.3-.2h.6l.1-.1.2-.4h.3l.1.1.4.7.3.9.4.4v.3l-.1.6.7 1.4.6.7.2.2.2.1.5.3v.1l.3.6v.4l-.1.3.2.4.6.5.5.2.1.2.7.5.9.6.7.3 2.7.3 1.3-.2.3-.1.2-.2.3-.1.8-.4.7-.3 1-.5.6-.1.9-.3.6-.4.5-.2.6-.3h.3l.5-.2.1-.1h.1l.2-.2.5-.5h.7l.3-.6.9-.5.3-.2.6-.2.9-.7.4-.3.3-.3.4-.3 1.5-.9.2-.3.3-.2.4-.1.5-.2.4-.3.3-.1.4-.3h.1l.5-.5.3-.1.1-.3.3-.3h.1l.2-.2.5-.3.6-.2v-.1l.3-.2h.3l.3-.5.6-.1.3-.2.8-.5.6-.9 1.9-.2.6.1h.8l-.1.1-.2.1v.1l.5.4h.2l.2.2 1.2.3.5.2.5.4 1.7 1.2.7.2.3.2.2.3.3.1.3.1.6-.2.3.2.2.3v.5h.3l.7.1.7.5.3-.2.5-.1.2.1.2.3.2.5.1.1.8.1.2.2.1.3v.1l.5.2.2.1.7.1.8.3.9.1.7.5v.2l-.1.5h.3l.3-.1.6-.1.1.1.5.1.7.3.1.2.2.2.9.1.4.2.3.2.3.1.1-.2h.3l.1.1-.1.5.1.1.3.2.8.1.3.2h.2v-.2l-.1-.2.2-.3h.3l.1.1.1.3h.6v-.2l.3-.2.1-.1v-.1l.5-.5.4.3v.2l-.1.1-.1.7h.1l.3.2v.1l.4.3h.9l.3.2v.2h-.1l.1.3h.2l.5-.3.2-.2.2-.2.1.1h.1l.1.3.4-.2.5-.4V21l.2-.1.3-.1.3.1v.2l-.2.1v.2l.2.2h.4l.3.2-.1.1h-.1v.1l.1.1h.1l.1-.4.8-.2.3.1 1.9-.2.3-.2h.4l.1.3 1.2.1.3.1.2.5.8.1.2-.2v-.2l-.1-.3.2-.2h.2v.1l.1.3.3.4h.2l.8-.2.9-.1.2.1.5.6h.5l.2-.2.8-.1h.9l.2-.2.3-.2.1.1h.1l.1.3h.6l.2-.2V22l.7-.5.9-.1.4.2.1.2h.4l.1-.3.4-.1.5-.1.5.1.5.2.3-.1h.4l.4.3-.1.2-1.7.2-.7.1v.1l.1.1.6.1.8.1 1.2-.1 1.6-.1.2-.1h.4l.6-.1 1.3-.1h.8l.3-.1h.4l.3-.1 1.1-.1.6-.1.4-.2h.7l.3-.2h.3l.1-.1.7-.2.9-.1.1-.1h.5l.8-.2.8-.3.3-.1.1-.1h.2l.5-.3h.2l.3-.1h.3l.4-.2.5-.1.4-.2.4-.1.4-.2.7-.3.3-.2.5-.2.1-.7.2-.2h.1l.5.2.4.3h.2l.1-.1.6-.3V17l-.1-.7.2-.2.5-.1.2-.3c.1 0 .2-.1.3-.1h.1v-.1l.1-.1c.2 0 .2-.1.2-.2.4.1.5-.1.6-.3h.4v.1h.8c.3 0 .6 0 .6-.2.1-.6.6-.8.8-1.3h.2v-.2c-.7-.2-1 0-1.9-.2-.9-.4-.9-.5-.9-.6zm-43.7 6.1-.4.1-.6.1-.6-.1v-.1l-.2-.1.1-.1.1-.6-.2-.2v-.1h-.2l-.2.1-.4.5-.2.1-.1-.1v-.2l-.1-.5-.2-.3h-.5l-.1.2h-.2l-.6.4V17.4l-.3-.4v-.3l.2-.3 1.7-.1.5-.2.7-.6v.4c-.2.1-.2.2-.2.4 0 .3 0 .6.2.6-.1-.3.2-.4.2-.6h.9v.2h.1l.1-.1v-.1h.2v.2c0 .1 0 .2-.2.2 0 .2.2.2.2.4 1-.1 1 .1.8.4l-.1.2c-.1.1-.2.1-.3.1h-.4c-.2 0-.2.2-.4.2-.2.7.6.4 1.1.4l-.4.2zm8.8 1.2-.2.1-.3-.3h-.2l-.3.1-.5.1-.3.1-.5.1-.6-.2-.6-.1-.4-.2h-.6v-.2l.9-.5v-.1l-.1-.2h-.3l-.1.1-.4.1-.2.1-.7.1-.6.4-.4.3-.5.1-.5-.2V19l.4-.2.4-.1.5-.1-.2-.2h-.3l-.1.1-1.1-.1h-.4c.1 0 .3-.1.4-.2 0-.1 0-.2.2-.2h2.1v.1l-.1-.1-.2.1.1.2h.1l.2-.2h3.5v-.2c.2 0 .2-.1.2-.2h.6c0 .4.7.1 1 .2.1 0 .3 0 .2.2 0 .2.3.2.4.2.3-.1.4.2.6.2 0-.6.5-.6 1-.6 0-.2-.2-.2-.2-.4s.4-.2.6-.2c.2 0 .2.1.2.2-.1.7.5.7 1 .6v.2h-.8c0 .2.2.2.2.4h-.2c-.5-.1-.8 0-1 .2v.2h-.2c-.2 0-.4 0-.5.1v-.1h-.6l-.6.7zm3.5.4-1.6.2-.2-.2.1-.1V20h1v-.2h.6c0-.2.1-.2.2-.2h1c-.1.2 0 .4.1.6h-1.2zm28.1-4.6h-.4c.1-.1.3-.2.5-.1l-.1.1z" style="fill:url(#SVGID_3_)"/><linearGradient id="SVGID_4_" gradientUnits="userSpaceOnUse" x1="-.069" y1="13.645" x2="162.203" y2="13.645"><stop offset="0" style="stop-color:#0093aa"/><stop offset=".32" style="stop-color:#2da4a1"/><stop offset=".78" style="stop-color:#68bb95"/><stop offset="1" style="stop-color:#7fc490"/></linearGradient><path d="M121.9 14h.2c.2 0 .2.1.2.2.6-.2 1.2-.4 1.9-.6 0-.2-.3-.2-.6-.2-.2.2-.5.2-.8.2v-.2c-.3-.1-.4-.3-.8-.2-.1.2-.2.3-.2.6 0 0 .2 0 .1.2z" style="fill:url(#SVGID_4_)"/><linearGradient id="SVGID_5_" gradientUnits="userSpaceOnUse" x1=".014" y1="12.214" x2="162.207" y2="12.214"><stop offset="0" style="stop-color:#0093aa"/><stop offset=".32" style="stop-color:#2da4a1"/><stop offset=".78" style="stop-color:#68bb95"/><stop offset="1" style="stop-color:#7fc490"/></linearGradient><path d="M141.3 11.9c-.2 0-.2.1-.2.2-.2.2-.5.2-.8.2 0 .2-.2.2-.2.4h1v-.2c.5 0 .6-.3 1-.4-.2-.6-.3-.3-.8-.2z" style="fill:url(#SVGID_5_)"/><linearGradient id="SVGID_6_" gradientUnits="userSpaceOnUse" x1="-.288" y1="8.357" x2="162.26" y2="8.357"><stop offset="0" style="stop-color:#0093aa"/><stop offset=".32" style="stop-color:#2da4a1"/><stop offset=".78" style="stop-color:#68bb95"/><stop offset="1" style="stop-color:#7fc490"/></linearGradient><path d="M134.2 8.6h.2c.2-.3.2-.5-.2-.6-.2 0-.2.1-.2.2-.8-.1-.4.7.2.4z" style="fill:url(#SVGID_6_)"/><linearGradient id="SVGID_7_" gradientUnits="userSpaceOnUse" x1="-.147" y1="5.838" x2="162.23" y2="5.838"><stop offset="0" style="stop-color:#0093aa"/><stop offset=".32" style="stop-color:#2da4a1"/><stop offset=".78" style="stop-color:#68bb95"/><stop offset="1" style="stop-color:#7fc490"/></linearGradient><path d="M162 0c-.3 0-.8-.1-.8.2 0 .2-.2.2-.2.4h-.2c-.5-.2-1 1-1 0V.4c-.3 0-.5.1-.6.2 0 .2-.4.1-.4.4 0 .2-.1.2-.2.2h-.4c-.2.4.6.7 0 .8v.4c-.5 0-.7.4-1 .6-.2.2-.6.1-.6.4-.8.3-1.8.4-2.1 1.3-.5 0-.9.1-1 .4-.8.2-1.3.7-1.9 1.1-.2 0-.2.2-.4.2h-.6c.1-.4-.1-.7-.4-.6 0 .2-.1.2-.2.2-.6-.1-.7.3-.6.8V7h-.4c-.2 0-.2.2-.4.2-.2.1-.6.3-.6 0h-1.3c-.4.3-.6.8-1.5.6h-.2c-.6.4-1.1.8-1.7 1.3-.8.3-.4.4-.4 1.5-.1 0-.2 0-.2.2.4-.1.7 0 .6.4 0 .7.7-.4.6.2h.6v-.2c0-.3-.1-.5-.4-.4-.2 0-.2-.2-.2-.4h1.5v.2h.6c0-.2.1-.2.2-.2h.2c.5 0 .7-.2.6-.6h-.2v-.4c0-.3.6-.1.6-.4.2 0 .2-.3.2-.6 0-.2.3-.2.4-.2.4 0 .4.2.8.2 0-.3.3-.3.2-.6h1.3c0-.3 1.4-.4 1 .2 0 .2 0 .4.2.4.1.2.2.2.4.2.1-.3.3-.4.6-.4.2 0 .2.1.2.2v.4c.5.1.8 0 1-.2-.1-.4 0-.6.4-.6v-.2c.3-.1.1-.6.4-.6v-.4c.8.1 1-.4 1.7-.4 0-.3.3-.3.2-.6h-.4c-.3.3-.9.3-1.5.4-.2 0-.2-.1-.2-.2v-.2c.6.1-.2-1 .4-.8.3.1.3.4.6.4h.4c.2 0 .4-.1.4-.2 0-.4.6-.3.4-.8h.2c0-.2.1-.2.2-.2.5-.1.7.1.6.6.6.2 1.4-.3.8-.6-.2-.2-.6-.1-.6-.4.5 0 .7-.3.8-.6.6.1.4-.4.8-.4.4.1.6-.1.8-.2.1-.3.3-.4.4-.6.3-.2.7-.3.6-.8h.2c.2 0 .2-.2.4-.2.3-.6.3-.8.3-1zm-9.9 7.6v-.2c-.1-.3-.5-.1-.6 0 0-.7 1-.8 1.3-.2-.2.2-.6.2-.7.4z" style="fill:url(#SVGID_7_)"/><linearGradient id="SVGID_8_" gradientUnits="userSpaceOnUse" x1="-.026" y1=".339" x2="162.228" y2=".339"><stop offset="0" style="stop-color:#0093aa"/><stop offset=".32" style="stop-color:#2da4a1"/><stop offset=".78" style="stop-color:#68bb95"/><stop offset="1" style="stop-color:#7fc490"/></linearGradient><path d="M160.3 0c-.2 0-.2.2-.4.2-.1 1.1 1-.2.4-.2z" style="fill:url(#SVGID_8_)"/><linearGradient id="SVGID_9_" gradientUnits="userSpaceOnUse" x1="-.173" y1="18.811" x2="162.245" y2="18.811"><stop offset="0" style="stop-color:#0093aa"/><stop offset=".32" style="stop-color:#2da4a1"/><stop offset=".78" style="stop-color:#68bb95"/><stop offset="1" style="stop-color:#7fc490"/></linearGradient><path d="M100.9 18.6h-.6c-.3.6.9.6.6 0z" style="fill:url(#SVGID_9_)"/><linearGradient id="SVGID_10_" gradientUnits="userSpaceOnUse" x1="-.229" y1="9.691" x2="162.241" y2="9.691"><stop offset="0" style="stop-color:#0093aa"/><stop offset=".32" style="stop-color:#2da4a1"/><stop offset=".78" style="stop-color:#68bb95"/><stop offset="1" style="stop-color:#7fc490"/></linearGradient><path d="M142.1 9.8v-.4c0-.2-.1-.2-.2-.2-.3 0-.4.3-.6.4-.2.2-.5.2-.8.2-.2 0-.2.1-.2.2 0 .2.4.2.6.2 0-.5 1.1 0 1.2-.4z" style="fill:url(#SVGID_10_)"/><linearGradient id="SVGID_11_" gradientUnits="userSpaceOnUse" x1=".158" y1="5.659" x2="162.22" y2="5.659"><stop offset="0" style="stop-color:#0093aa"/><stop offset=".32" style="stop-color:#2da4a1"/><stop offset=".78" style="stop-color:#68bb95"/><stop offset="1" style="stop-color:#7fc490"/></linearGradient><path d="M157.3 5.4c-.2 0-.2.3-.2.4.2 0 .4 0 .4-.2 0-.1-.1-.1-.2-.2z" style="fill:url(#SVGID_11_)"/><linearGradient id="SVGID_12_" gradientUnits="userSpaceOnUse" x1="-.196" y1="16.432" x2="162.245" y2="16.432"><stop offset="0" style="stop-color:#0093aa"/><stop offset=".32" style="stop-color:#2da4a1"/><stop offset=".78" style="stop-color:#68bb95"/><stop offset="1" style="stop-color:#7fc490"/></linearGradient><path d="M123.8 16.2h-.2c-.8 0-.8 1 .2.8v-.2H125c.1 0 .2 0 .2-.2.2 0 .2-.2.4-.2.3.1.9-.4.4-.4 0-.3-.5-.2-.8-.2v.2c-.1 0-.2 0-.2.2-.4 0-.8-.4-1.2 0z" style="fill:url(#SVGID_12_)"/><linearGradient id="SVGID_13_" gradientUnits="userSpaceOnUse" x1="-.219" y1="10.932" x2="162.434" y2="10.932"><stop offset="0" style="stop-color:#0093aa"/><stop offset=".32" style="stop-color:#2da4a1"/><stop offset=".78" style="stop-color:#68bb95"/><stop offset="1" style="stop-color:#7fc490"/></linearGradient><path style="fill:url(#SVGID_13_)" d="M40.9 10.8h.1v.2h-.1z"/><linearGradient id="SVGID_14_" gradientUnits="userSpaceOnUse" x1="-.146" y1="11.724" x2="162.188" y2="11.724"><stop offset="0" style="stop-color:#0093aa"/><stop offset=".32" style="stop-color:#2da4a1"/><stop offset=".78" style="stop-color:#68bb95"/><stop offset="1" style="stop-color:#7fc490"/></linearGradient><path style="fill:url(#SVGID_14_)" d="m10.3 12.1.5-.3h.2l.4-.3v-.1l-.1-.1h-.2l-.6.3-.6.3v.1l.1.1z"/><linearGradient id="SVGID_15_" gradientUnits="userSpaceOnUse" x1="-.149" y1="17.285" x2="162.158" y2="17.285"><stop offset="0" style="stop-color:#0093aa"/><stop offset=".32" style="stop-color:#2da4a1"/><stop offset=".78" style="stop-color:#68bb95"/><stop offset="1" style="stop-color:#7fc490"/></linearGradient><path style="fill:url(#SVGID_15_)" d="m.5 17.4.3-.3v-.3H.1l-.1.1.1.1v.7l.1.1h.1l.2-.1z"/><linearGradient id="SVGID_16_" gradientUnits="userSpaceOnUse" x1="-.307" y1="18.562" x2="162.395" y2="18.562"><stop offset="0" style="stop-color:#0093aa"/><stop offset=".32" style="stop-color:#2da4a1"/><stop offset=".78" style="stop-color:#68bb95"/><stop offset="1" style="stop-color:#7fc490"/></linearGradient><path style="fill:url(#SVGID_16_)" d="m79 18.5.1.2h.2v-.2z"/><linearGradient id="SVGID_17_" gradientUnits="userSpaceOnUse" x1=".587" y1="18.763" x2="161.767" y2="18.763"><stop offset="0" style="stop-color:#0093aa"/><stop offset=".32" style="stop-color:#2da4a1"/><stop offset=".78" style="stop-color:#68bb95"/><stop offset="1" style="stop-color:#7fc490"/></linearGradient><path style="fill:url(#SVGID_17_)" d="M99.2 18.8v.2h.2l.2-.1v-.3l-.2-.1z"/><linearGradient id="SVGID_18_" gradientUnits="userSpaceOnUse" x1="-.185" y1="21.675" x2="162.609" y2="21.675"><stop offset="0" style="stop-color:#0093aa"/><stop offset=".32" style="stop-color:#2da4a1"/><stop offset=".78" style="stop-color:#68bb95"/><stop offset="1" style="stop-color:#7fc490"/></linearGradient><path style="fill:url(#SVGID_18_)" d="M13.7 21.6v.2h.2v-.1l-.1-.1z"/><linearGradient id="SVGID_19_" gradientUnits="userSpaceOnUse" x1="-.177" y1="21.819" x2="162.253" y2="21.819"><stop offset="0" style="stop-color:#0093aa"/><stop offset=".32" style="stop-color:#2da4a1"/><stop offset=".78" style="stop-color:#68bb95"/><stop offset="1" style="stop-color:#7fc490"/></linearGradient><path style="fill:url(#SVGID_19_)" d="m86.1 21.6-.2.2.2.1.6.1.1-.1-.2-.2z"/><linearGradient id="SVGID_20_" gradientUnits="userSpaceOnUse" x1=".029" y1="22.243" x2="162.107" y2="22.243"><stop offset="0" style="stop-color:#0093aa"/><stop offset=".32" style="stop-color:#2da4a1"/><stop offset=".78" style="stop-color:#68bb95"/><stop offset="1" style="stop-color:#7fc490"/></linearGradient><path style="fill:url(#SVGID_20_)" d="m96.7 22.2-.1.1h.2v-.1h-.1z"/><linearGradient id="SVGID_21_" gradientUnits="userSpaceOnUse" x1=".538" y1="22.444" x2="161.787" y2="22.444"><stop offset="0" style="stop-color:#0093aa"/><stop offset=".32" style="stop-color:#2da4a1"/><stop offset=".78" style="stop-color:#68bb95"/><stop offset="1" style="stop-color:#7fc490"/></linearGradient><path style="fill:url(#SVGID_21_)" d="M98.4 22.5H98.7l-.1-.1z"/><linearGradient id="SVGID_22_" gradientUnits="userSpaceOnUse" x1="-.158" y1="22.675" x2="162.306" y2="22.675"><stop offset="0" style="stop-color:#0093aa"/><stop offset=".32" style="stop-color:#2da4a1"/><stop offset=".78" style="stop-color:#68bb95"/><stop offset="1" style="stop-color:#7fc490"/></linearGradient><path style="fill:url(#SVGID_22_)" d="m14.6 22.4-.2.2v.2l.2.1.1-.1.3-.1v-.2l-.1-.1z"/><linearGradient id="SVGID_23_" gradientUnits="userSpaceOnUse" x1="-.161" y1="24.47" x2="162.384" y2="24.47"><stop offset="0" style="stop-color:#0093aa"/><stop offset=".32" style="stop-color:#2da4a1"/><stop offset=".78" style="stop-color:#68bb95"/><stop offset="1" style="stop-color:#7fc490"/></linearGradient><path style="fill:url(#SVGID_23_)" d="m11.8 24-.1.1v.6l.2.2h.2l.3-.3v-.2l-.1-.3z"/></g></g></switch></svg>