<svg version="1.1" id="Слой_1" xmlns="http://www.w3.org/2000/svg" x="0" y="0" viewBox="0 0 16 16" style="enable-background:new 0 0 16 16" xml:space="preserve"><style>.st0{fill:#2f3237}</style><switch><g><path class="st0" d="M15.9.1c-.2-.2-.5-.2-.7 0l-15 15c-.2.2-.2.5 0 .7.1.1.2.2.3.2s.3 0 .4-.1l15-15c.2-.2.2-.6 0-.8zM3.5 0C1.6 0 0 1.6 0 3.5S1.6 7 3.5 7 7 5.4 7 3.5 5.4 0 3.5 0zm0 6C2.1 6 1 4.9 1 3.5S2.1 1 3.5 1 6 2.1 6 3.5 4.9 6 3.5 6zM12.5 9C10.6 9 9 10.6 9 12.5s1.6 3.5 3.5 3.5 3.5-1.6 3.5-3.5S14.4 9 12.5 9zm0 6c-1.4 0-2.5-1.1-2.5-2.5s1.1-2.5 2.5-2.5 2.5 1.1 2.5 2.5-1.1 2.5-2.5 2.5z"/></g></switch></svg>