<svg xmlns="http://www.w3.org/2000/svg" viewBox="0 0 18 18" style="enable-background:new 0 0 18 18" xml:space="preserve"><switch><g><path d="M3.6 12c1.8 2.1 3.9 3.8 6.4 5 .9.4 2.2 1 3.6 1.1h.3c.9 0 1.7-.3 2.3-1 .2-.3.5-.5.7-.7.2-.2.4-.3.5-.5.8-.8.8-1.9 0-2.7L15.2 11c-.4-.4-.8-.6-1.3-.6s-.9.2-1.3.6l-1.3 1.3c-.1-.1-.2-.1-.4-.2-.1-.1-.3-.1-.4-.2C9.1 11 8 9.9 7 8.6c-.6-.6-.9-1.2-1.2-1.8.4-.3.7-.6 1-1 .1-.1.2-.2.4-.3.4-.4.6-.9.6-1.3 0-.5-.2-.9-.6-1.3L6 1.7c-.1-.1-.2-.2-.3-.4-.3-.2-.5-.5-.8-.7C4.5.2 4.1 0 3.6 0s-.9.2-1.3.6L.9 2C.4 2.5.1 3.1 0 3.8c-.1.9.1 1.8.5 3 .7 1.8 1.7 3.4 3.1 5.2zM.9 3.9c.1-.5.3-.9.6-1.3l1.4-1.4c.2-.2.5-.3.7-.3.2 0 .5.1.7.3.2.3.4.5.7.8l.4.4 1.1 1.1c.2.2.4.5.4.7 0 .2-.1.5-.4.7l-.3.3c-.3.4-.7.7-1 1-.4.3-.4.6-.3.9.3.7.7 1.3 1.3 2.1 1.1 1.4 2.3 2.5 3.6 3.3.2.1.3.2.5.3.1.1.3.1.4.2.1.1.2.1.4.1.3 0 .5-.2.6-.3l1.4-1.4c.2-.2.5-.3.7-.3.3 0 .5.2.7.3l2.2 2.2c.4.4.4.9 0 1.4l-.5.5-.8.8c-.4.5-.9.7-1.6.7h-.2c-1.2-.1-2.4-.6-3.2-1-2.3-1.1-4.4-2.7-6-4.7C3 9.7 2 8.2 1.4 6.5 1 5.5.9 4.6.9 3.9z" style="fill:#2f3237"/></g></switch></svg>