<svg version="1.1" id="Слой_1" xmlns="http://www.w3.org/2000/svg" x="0" y="0" viewBox="0 0 42 40" style="enable-background:new 0 0 42 40" xml:space="preserve"><style>.st0{fill:#009fa5}</style><switch><g><path class="st0" d="M25.3 11c-6.9 0-12.6 5.6-12.6 12.6 0 6.9 5.6 12.6 12.6 12.6s12.6-5.6 12.6-12.6C37.8 16.7 32.2 11 25.3 11zm0 23.9c-6.2 0-11.3-5.1-11.3-11.3s5.1-11.3 11.3-11.3 11.3 5.1 11.3 11.3-5.1 11.3-11.3 11.3z"/><path class="st0" d="M31.5 17.4c-.2-.2-.7-.2-.9 0l-4.2 4.2-.1-.1c-.7-.3-1.4-.3-2.1 0l-.1.1-1.9-1.9c-.1-.1-.3-.2-.5-.2s-.3.1-.5.2c-.1.1-.2.3-.2.5s.1.3.2.5l1.9 1.9-.1.1c-.2.3-.2.7-.2 1 0 1.3 1.1 2.4 2.4 2.4s2.4-1.1 2.4-2.4c0-.4-.1-.7-.2-1l-.1-.1 4.2-4.2c.1-.1.2-.3.2-.5 0-.3-.1-.4-.2-.5zm-6.2 7.3c-.6 0-1.1-.5-1.1-1.1 0-.6.5-1.1 1.1-1.1s1.1.5 1.1 1.1c0 .6-.5 1.1-1.1 1.1zM32.3 36.8z"/><path class="st0" d="M41.6 22c-.1-.6-.2-1.3-.4-2.1-.7-3-2.2-5.7-4.4-7.9s-5-3.7-8-4.4h-.1V5.2h.1c1.2-.3 2-1.3 2-2.5 0-1.4-1.2-2.6-2.6-2.6h-5.9c-1.4 0-2.6 1.2-2.6 2.6 0 1.2.8 2.2 2 2.5h.1v2.4h-.1c-3 .7-5.8 2.2-8 4.4-.5.5-1 1-1.4 1.6l-.1.1h-6c-.4 0-.6.3-.6.6s.3.6.6.6h5.1l-.2.3c-.6 1-1.1 2-1.4 3.1v.1H.6c-.4 0-.6.3-.6.6 0 .4.3.6.6.6h8.7v.2c-.2 1-.4 2.1-.4 3.1v.2H5.1c-.4 0-.6.3-.6.6s.3.6.6.6h3.8v.2c.1 1.1.2 2.1.5 3.1l.1.4H3.9c-.4 0-.6.3-.6.6 0 .4.3.6.6.6h6v.1c.8 2.2 2.1 4.1 3.7 5.8 2.7 2.7 6.2 4.4 10 4.7 2.8.3 5.7-.2 8.3-1.3h.1c3.4-1.5 6.2-4.1 7.9-7.5.3-.5.5-1.1.8-1.8l.1-.2c.7-2.2 1-4.6.8-7zM21 2.6c0-.7.6-1.3 1.3-1.3h5.9c.7 0 1.3.6 1.3 1.3 0 .7-.6 1.3-1.3 1.3h-5.9c-.7 0-1.3-.6-1.3-1.3zm6.4 2.6v2.1h-.2c-1.3-.2-2.6-.2-3.9 0h-.2V5.2h4.3zM38 31.8c-1.2 1.8-2.7 3.3-4.4 4.5-.4.2-.7.4-1.1.6h-.1c-2.2 1.2-4.6 1.7-7 1.7-3.9 0-7.9-1.5-10.7-4.4-5.9-5.9-5.9-15.5 0-21.4C20.5 7 30.1 7 36 12.9c2 2 3.4 4.6 4.1 7.5.8 4 .1 8-2.1 11.4z"/></g></switch></svg>