<svg xmlns="http://www.w3.org/2000/svg" viewBox="0 0 44 40" style="enable-background:new 0 0 44 40" xml:space="preserve"><switch><g><path d="M42.9 29.8c.3.3.7.3 1 0 .1-.1.2-.3.2-.5s-.1-.4-.2-.5l-6.1-6.1 2.8-2.8c1.2-1.2 1.2-3.2 0-4.4-.4-.4-.9-.7-1.5-.8h-.2l.1-.2c.2-.4.3-.8.3-1.3 0-.8-.3-1.6-.9-2.2-.5-.5-1-.8-1.7-.9h-.2l.1-.2c.4-1.1.1-2.3-.7-3.2-.5-.5-1-.7-1.7-.9H34v-.2c.1-.3.2-.6.2-1 0-.8-.3-1.6-.9-2.2-.6-.6-1.4-.9-2.2-.9-.5 0-1 .1-1.5.4l-.1.1-.2-.2C28.3.7 26.8 0 25.2 0h-6.8c-.4 0-.7.3-.7.7v1.1c0 .4.1.9.2 1.3l.1.4-.4-.2c-.4-.2-.8-.2-1.2-.2-.8 0-1.6.3-2.2.9-.8.8-1.1 2-.7 3.2l.1.2h-.2c-.6.1-1.2.4-1.7.9-.6.6-.9 1.4-.9 2.2 0 .3.1.7.2 1l.1.2h-.2c-.6.1-1.2.4-1.7.9-.9.9-1.2 2.3-.6 3.5l.1.2h-.2c-.6 0-1.1.3-1.5.7-.6.6-.9 1.4-.9 2.2 0 .8.3 1.6.9 2.2l1.9 1.9-.1.1-8.5 8.5c-.3.3-.3.7 0 1 .3.3.7.3 1 0l8.7-8.7.1.1c.5.3 1 .4 1.5.4.8 0 1.6-.3 2.2-.9.6-.6.9-1.5.9-2.3v-.2H15c.8 0 1.6-.3 2.2-.9.6-.6.9-1.4.9-2.2v-.3h.2c.9 0 1.7-.3 2.3-.9.6-.6.9-1.4.9-2.2V14.5h.2c.9.1 1.7-.3 2.3-.9 1.1-1.1 1.2-2.9.2-4.1l-.2-.2 5.9-5.9c.6-.6 1.8-.6 2.4 0 .3.3.5.8.5 1.2 0 .5-.2.9-.5 1.2l-3.9 3.9c-.3.3-.3.7 0 1 .3.3.7.3 1 0l3.1-3.1c.6-.6 1.8-.6 2.4 0 .3.3.5.8.5 1.2s-.2.9-.5 1.2l-3.1 3.1c-.1.1-.2.3-.2.5s.1.4.2.5c.3.3.7.3 1 0l2.2-2.2c.6-.6 1.8-.6 2.4 0 .3.3.5.8.5 1.2 0 .5-.2.9-.5 1.2l-2.2 2.2c-.3.3-.3.7 0 1 .3.3.7.3 1 0l1.1-1.1c.3-.3.8-.5 1.2-.5.4 0 .9.2 1.2.5.7.7.7 1.8 0 2.4l-8.4 8.4c-2.1 2.1-5 3.4-8 3.5-.2 0-.3.1-.5.2L15 38.7c-.3.3-.3.7 0 1 .3.3.7.3 1 0l5.8-5.8.1.1c1.4.9 3.1 1.3 4.8 1.2h.1l.1.1 4.5 4.5c.3.3.7.3 1 0 .3-.3.3-.7 0-1L27.6 34c-.1-.1-.3-.2-.5-.2h-.3c-1.3.1-2.6-.2-3.7-.8h-.4l.8-.8h.1c3.3-.2 6.3-1.6 8.6-3.9l4.6-4.6 6.1 6.1zm-30.2-7c-.3.3-.8.5-1.2.5-.5 0-.9-.2-1.2-.5L8 20.4c-.7-.7-.7-1.8 0-2.4.6-.6 1.8-.6 2.4 0l2.3 2.3c.3.3.5.8.5 1.2s-.1 1-.5 1.3zm3.4-3.4c-.3.3-.8.5-1.2.5-.4 0-.9-.2-1.2-.5l-3.5-3.5c-.3-.3-.5-.8-.5-1.2 0-.5.2-.9.5-1.2.6-.6 1.8-.6 2.4 0l3.5 3.5c.3.3.5.8.5 1.2 0 .4-.1.9-.5 1.2zm3.4-3.4c-.3.3-.8.5-1.2.5-.5 0-.9-.2-1.2-.5l-4.4-4.4c-.3-.3-.5-.8-.5-1.2s.2-.9.5-1.2c.6-.6 1.8-.6 2.4 0l4.4 4.4c.3.3.5.8.5 1.2 0 .4-.1.9-.5 1.2zm3.4-3.4c-.3.3-.8.5-1.2.5s-.9-.2-1.2-.5l-5.2-5.2c-.7-.7-.7-1.8 0-2.4.6-.6 1.8-.6 2.4 0l5.2 5.2c.3.3.5.8.5 1.2 0 .4-.1.9-.5 1.2zm.1-4.3-2.9-2.9.6.1c.3.1.5.1.8.1h2.4c.4 0 .7-.3.7-.7 0-.4-.3-.7-.7-.7h-2.4c-.6 0-1.2-.2-1.7-.7-.5-.5-.7-1-.7-1.7v-.4h6.1c1.2 0 2.3.5 3.1 1.3l.2.2L23 8.3z" style="fill:#009fa5"/></g></switch></svg>