<svg version="1.1" id="Слой_1" xmlns="http://www.w3.org/2000/svg" x="0" y="0" viewBox="0 0 77 60" style="enable-background:new 0 0 77 60" xml:space="preserve"><style>.st0{fill:#009fa5}</style><switch><g><path class="st0" d="m75.6 20.9.2-.1c.6-.4 1.1-1.1 1.1-1.8V8.6C76.9 2.3 53.3 0 38.4 0S0 2.3 0 8.6V19c0 .7.4 1.4 1.1 1.8l.2.1v1.9c0 1.9 1.5 3.4 3.4 3.4h1.9l.1.3c.5 1.4 1.8 2.3 3.2 2.3h3.9c.6 0 1.2-.2 1.7-.5l.4-.2.2.4c.6 1 1.7 1.6 2.9 1.6h5.2c.6 0 1.2-.2 1.7-.5l.4-.2.2.4c.6 1 1.7 1.6 2.9 1.6h6.5c.8 0 1.6-.3 2.3-.9l.3-.3.3.3c.6.6 1.4.9 2.3.9h6.5c1.2 0 2.2-.6 2.9-1.6l.2-.4.4.2c.5.3 1.1.5 1.7.5H58c1.2 0 2.2-.6 2.9-1.6l.2-.4.4.2c.5.3 1.1.5 1.7.5H67c1.4 0 2.7-.9 3.2-2.3l.1-.3h1.9c1.9 0 3.4-1.5 3.4-3.4v-1.9zM4.7 24.6c-1 0-1.8-.8-1.8-1.8v-3.5c0-.9.5-1.9 1.5-1.9 1.3.2 2.2 1.3 2.1 2.6v4.5H4.7zm10.9.9c0 1-.8 1.8-1.8 1.8H9.9c-1 0-1.8-.8-1.8-1.8V19c-.1-.8.3-1.7.9-2.3.6-.6 1.5-1 2.4-.9 2.3 0 4.2 1.9 4.2 4.2v5.5zm10.3 1.3c0 1-.8 1.8-1.8 1.8H19c-1 0-1.8-.8-1.8-1.8V19c0-1 .3-2 1.1-2.7.7-.7 1.6-1.1 2.6-1.1h.2c2.7 0 4.9 2.2 4.9 4.9v6.7zm11.7 1.3c0 1-.8 1.8-1.8 1.8h-6.5c-1 0-1.8-.8-1.8-1.8V19c-.1-1.2.4-2.3 1.2-3.1.9-.9 2-1.3 3.2-1.2 1.5 0 2.9.6 4 1.7s1.7 2.5 1.7 4v7.7zm11.7 0c0 1-.8 1.8-1.8 1.8H41c-1 0-1.8-.8-1.8-1.8v-7.8c0-3.1 2.5-5.7 5.7-5.7h.2c1.1 0 2.2.4 2.9 1.2.8.8 1.3 2 1.2 3.2v9.1zm10.4-1.3c0 1-.8 1.8-1.8 1.8h-5.2c-1 0-1.8-.8-1.8-1.8v-6.6c0-2.7 2.2-4.9 5-4.9h.2c.9 0 1.9.4 2.6 1.1.7.7 1.1 1.7 1.1 2.8v7.6zm7.3.4h-3.9c-1 0-1.8-.8-1.8-1.8V20c0-2.3 1.9-4.2 4.2-4.2h.2c.8 0 1.6.3 2.1.9.6.6.9 1.5.9 2.4v6.4c0 .9-.8 1.7-1.7 1.7zm6.9-4.3c0 1-.8 1.8-1.8 1.8h-1.8v-4.6c-.1-1.2.7-2.3 2-2.5 1.2 0 1.6 1 1.6 1.9v3.4zm1.3-5.5-.8-.7c-.5-.5-1.2-.7-1.9-.7h-.1c-.7 0-1.5.2-2 .7l-.4.2-.3-.5c-.8-1.5-2.4-2.4-4.2-2.3-1.7 0-3.2.7-4.3 1.9l-.4.5-.3-.5c-1-1.5-2.7-2.5-4.6-2.4-1.9 0-3.8.8-5 2.3l-.4.5-.3-.6c-1-1.7-2.9-2.8-4.9-2.8h-.2c-2.5 0-4.8 1.2-6.1 3.3l-.4.6-.6-.7c-1.4-2-3.6-3.3-6.1-3.3h-.3c-2 0-3.9 1.1-4.9 2.8l-.3.6-.4-.5c-1.2-1.5-3.1-2.3-5-2.3h-.2c-1.8 0-3.4.9-4.4 2.4l-.3.5-.5-.4c-1.1-1.2-2.7-1.9-4.3-1.9h-.2c-1.7 0-3.2.9-4 2.3l-.3.5-.4-.3c-.6-.4-1.3-.7-2-.7s-1.4.2-2 .7l-.8.7V8.6c0-1.6 3.8-3.4 10.5-4.7 7.2-1.5 16.5-2.3 26.3-2.3s19.1.8 26.3 2.3C71.4 5.2 75.2 7 75.2 8.6v8.8zM75.6 41.7c0-.8-.4-1.5-1.1-1.8l-.3-.2.1-.3V36.6c0-1.8-1.5-3.3-3.3-3.3h-.2c-.9 0-1.8.4-2.4 1l-.3.3-.3-.3c-.9-.9-2-1.3-3.2-1.3H63c-1.4 0-2.7.6-3.5 1.7l-.2.3-.4-.2c-.6-.3-1.4-.5-2.1-.5h-2.9c-1.6 0-3.1.9-3.9 2.2l-.3.5-.4-.4c-.8-.7-1.8-1.1-2.9-1.1h-4.2c-1.3 0-2.5.6-3.4 1.5l-.4.4-.3-.4c-.9-1-2.1-1.5-3.4-1.5h-4.2c-1.1 0-2.1.4-2.9 1.1l-.4.4-.3-.5c-.8-1.4-2.3-2.2-3.9-2.2h-2.9c-.7 0-1.4.2-2.1.5l-.4.2-.2-.3a4.6 4.6 0 0 0-3.6-1.7h-1.6c-1.2 0-2.4.5-3.2 1.3l-.3.3-.3-.3c-.6-.6-1.5-1-2.4-1h-.1c-1.8 0-3.3 1.5-3.3 3.3v2.9l.1.3-.3.2c-.7.4-1.1 1.1-1.1 1.8v10c0 6.1 22.8 8.3 37.1 8.3s37.1-2.3 37.1-8.3V41.7zm-4.8-6.9h.2c.9 0 1.7.8 1.7 1.7v2.3c0 .9-.5 1.9-1.5 1.9-1.3-.2-2.2-1.3-2.1-2.6v-1.5c0-1 .7-1.8 1.7-1.8zm-10.2.9c.5-.8 1.4-1.2 2.4-1.2h1.6c1.6 0 2.9 1.3 2.9 2.9v5c0 .8-.3 1.7-.9 2.3-.6.5-1.3.8-2 .8h-.4c-1 0-1.9-.3-2.6-1l-.2-.1v-5.7c0-.9-.3-1.7-.7-2.5l-.3-.2.2-.3zm-9.7 3c0-1.6 1.3-2.9 2.9-2.9h2.9c1.6 0 2.9 1.3 2.9 2.9V45c0 1-.4 2-1.1 2.7-.7.6-1.5 1-2.4 1h-.4c-2.6 0-4.7-2.1-4.8-4.7v-5.3zM39.2 40c0-1.6 1.3-2.9 2.9-2.9h4.2c1.6 0 2.9 1.3 2.9 2.9v7.5c0 2-1.5 2.9-4.4 2.9h-.2c-1.4 0-2.8-.6-3.9-1.6-1-1-1.6-2.4-1.6-3.9V40zm-11.6 0c0-1.6 1.3-2.9 2.9-2.9h4.2c1.6 0 2.9 1.3 2.9 2.9v5c0 3-2.4 5.4-5.4 5.4H32c-2.9 0-4.4-1-4.4-2.9V40zm-10.4-1.3c0-1.6 1.3-2.9 2.9-2.9H23c1.6 0 2.9 1.3 2.9 2.9v5.1c0 2.6-2.1 4.7-4.8 4.7h-.5c-.9 0-1.8-.4-2.4-1-.6-.5-1-1.5-1-2.5v-6.3zm-7.8-1.3c0-1.6 1.3-2.9 2.9-2.9h1.6c.9 0 1.8.5 2.4 1.2l.2.3-.2.3c-.5.7-.7 1.6-.7 2.5v5.7l-.2.1c-.7.6-1.6 1-2.6 1h-.5c-.7 0-1.5-.3-2-.8-.6-.6-1-1.4-.9-2.3v-5.1zm-5.2-.9c0-.9.8-1.7 1.7-1.7h.2c.9 0 1.7.8 1.7 1.7v1.6c.1 1.2-.7 2.3-2 2.5-1.2 0-1.6-1-1.6-1.9v-2.2zm69.7 15.2c0 1.6-3.7 3.2-10.1 4.5-6.9 1.4-15.9 2.2-25.4 2.2S20 57.6 13 56.2c-6.4-1.3-10.1-3-10.1-4.5v-11l.8.8c.5.5 1.2.8 1.9.8h.1c.5 0 1-.1 1.4-.3l.7-.3v.7c0 1.3.5 2.6 1.4 3.5.9.9 2.2 1.4 3.4 1.3h.2c.8 0 1.7-.2 2.4-.6l.5-.2.2.5c.7 2.1 2.8 3.5 5.1 3.4h.2c1.5 0 3-.6 4.2-1.6l.6-.5.2.7c.4 1.5 1.8 3.2 5.8 3.2h.2c2.4 0 4.5-1.2 5.9-3.1l.4-.6.4.6c1.3 2 3.5 3.1 5.9 3.1h.2c4 0 5.4-1.7 5.8-3.2l.2-.7.6.5c1.2 1 2.6 1.6 4.2 1.6h.5c2.2 0 4.1-1.4 4.8-3.4l.2-.5.5.2c.7.4 1.6.5 2.4.6h.4c1.2 0 2.4-.5 3.2-1.3.9-.9 1.4-2.1 1.4-3.4v-.8l.7.3c.4.2.9.3 1.4.3.7 0 1.4-.3 1.9-.7l.8-.7v10.8z"/></g></switch></svg>