<svg xmlns="http://www.w3.org/2000/svg" viewBox="0 0 70 70" style="enable-background:new 0 0 70 70" xml:space="preserve"><switch><g><path d="M69.9 17.3V7.9C69.9 2.1 49 0 35 0S0 2.1 0 7.9v9.4c0 .7.4 1.3 1 1.7l.2.1v1.7c0 1.7 1.4 3.1 3.1 3.1H6l.1.3c.4 1.2 1.6 2.1 2.9 2.1h3.5c.5 0 1.1-.1 1.5-.4l.3-.2.2.3c.6.9 1.6 1.5 2.6 1.5H22c.5 0 1.1-.1 1.5-.4l.3-.2.2.3c.6.9 1.6 1.5 2.6 1.5h5.9c.8 0 1.5-.3 2.1-.8l.3-.2.3.3.9.6.9.4-.9.4c-7.7 3-17.1 9.3-23.3 14.2C4.9 49.6.4 56 .1 61.4v.2C0 63.5.5 65.4 1.6 67l.1.1.1.1c1.3 1.4 2.9 2.3 4.8 2.6.7.1 1.5.2 2.2.2 5.1 0 11.5-2.9 18.4-8.4 7.1-5.6 16.9-14.8 21-22.1l.1-.2h.4c2 0 3.7-1.7 3.7-3.7v-8.1h.4c1 0 2-.6 2.6-1.5l.2-.3.3.2c.5.3 1 .4 1.5.4h3.5c1.3 0 2.5-.8 2.9-2.1l.1-.3h1.7c1.7 0 3.1-1.4 3.1-3.1v-1.7l.3-.1c.6-.4.9-1 .9-1.7zM4.3 22.4c-.9 0-1.6-.7-1.6-1.6v-3.1c0-.8.4-1.7 1.3-1.7 1.2.2 2 1.2 1.8 2.3v4.1H4.3zm9.8.8c0 .9-.7 1.6-1.6 1.6H9c-.9 0-1.6-.7-1.6-1.6v-5.9c-.1-.8.2-1.5.8-2.1.6-.6 1.3-.8 2.1-.8 2.1 0 3.8 1.7 3.8 3.8v5zm9.5 1.2c0 .9-.7 1.6-1.6 1.6h-4.7c-.9 0-1.6-.7-1.6-1.6v-7.1c0-.9.3-1.8 1-2.5s1.6-1 2.5-1c2.4 0 4.4 2 4.4 4.5v6.1zm10.6 1.1c0 .9-.7 1.6-1.6 1.6h-5.9c-.9 0-1.6-.7-1.6-1.6v-8.3c-.1-1 .4-2.1 1.1-2.8.7-.7 1.8-1.2 2.9-1.1 1.4 0 2.6.5 3.6 1.5s1.5 2.3 1.5 3.6v7.1zm1.5 0v-7.1c0-1.4.5-2.7 1.5-3.6.9-.9 2.3-1.5 3.6-1.5 1.1-.1 2.1.3 2.9 1.1.8.8 1.2 1.8 1.1 2.9v1.6l-.3.1c-3.8.6-6.7 3.9-6.7 7.7v.4h-.4c-.9 0-1.7-.7-1.7-1.6zm5.7 13.8h1.3l-.7.7c-5.2 5.2-10.7 10-16.5 14.5-6.6 5.2-12.7 8-17.4 8h-.7l.1-.5c1-4.6 5.2-10 11.9-15.3C25 42.2 31 37.9 37.1 34.1l.6-.4v1.8c0 2.1 1.7 3.8 3.7 3.8zM1.9 59.6C3 55.1 7 50 13.5 44.9l.3-.3c8-6.3 17-11.8 23.4-14.2l.5-.2V32l-.2.1c-6.7 4-13.1 8.5-19.1 13.4C11.3 51.2 7 56.8 6 61.8l-.1.4-.4-.1C4.1 61.8 2.9 61 2 60l-.1-.2v-.2zm48.2-22.4-1.1 1 .6-1.7c.1-.1.1-.3.1-.4.2-.8-.1-1.6-.8-2l-1.1 2.7c-2.7 6.7-13 16.9-21.5 23.6-6.7 5.3-12.7 8-17.4 8-.7 0-1.4-.1-2-.2-1.5-.3-2.8-1-3.9-2.1-.7-1-1.1-2.2-1.2-3.4l-.1-.8.7.5c1.2.8 2.6 1.4 4.1 1.6h.1c5.3.7 12.3-2.2 20-8.3C37 47.3 43.7 41.1 47 36.5l1.7-2.4s-.1 0-.1-.1c-.8-.4-1.8-.1-2.2.7-.7 1-1.4 2-2.2 2.9l-.1.1h-2.7c-1.2 0-2.1-1-2.1-2.1v-8.7c0-3.5 2.8-6.4 6.3-6.5h.1c1.4-.1 2.7.4 3.7 1.4 1 1 1.5 2.3 1.4 3.6v10.1c0 .7-.3 1.3-.7 1.7zm2.7-11.3h-.4v-.5c.1-3.3-2.3-6.2-5.6-6.5h-.4v-.6c0-1.2.5-2.3 1.3-3.2.8-.8 2-1.3 3.2-1.3.9 0 1.8.3 2.5 1s1 1.6 1 2.5v7.1c-.2.8-.8 1.5-1.6 1.5zm8.1-1.1h-3.5c-.9 0-1.6-.7-1.6-1.6v-5c0-2.1 1.7-3.8 3.8-3.8.8-.1 1.5.2 2.1.8.6.6.8 1.3.8 2.1v5.9c0 .9-.7 1.6-1.6 1.6zm6.3-4c0 .9-.7 1.6-1.6 1.6H64v-4.1c-.1-1.1.7-2.1 1.8-2.3 1 0 1.4.9 1.4 1.7v3.1zm1.2-5-.7-.6c-.5-.4-1.1-.7-1.7-.7h-.1c-.7 0-1.3.2-1.9.6l-.4.3-.2-.4c-.8-1.4-2.3-2.2-3.8-2.1-1.5 0-2.9.6-3.9 1.7l-.4.4-.3-.5c-.8-1.4-2.4-2.2-4-2.2h-.2c-1.6 0-3.1.6-4.3 1.8-.1.1-.1.1-.1.2s-.1.1-.1.2l-.4.4-.3-.5c-1-1.7-2.8-2.7-4.7-2.6-1.8 0-3.5.7-4.7 2-.3.3-.6.7-.8 1l-.4.5-.3-.5c-1.2-1.9-3.3-3-5.6-3-2-.1-3.8.9-4.7 2.6l-.4.5-.4-.4c-1.1-1.3-2.8-2.1-4.6-2.1-1.7-.1-3.3.8-4.2 2.2l-.2.4-.4-.4c-1-1.1-2.4-1.7-3.9-1.7h-.2c-1.5 0-2.9.8-3.7 2.1l-.2.4-.4-.3c-.5-.4-1.2-.6-1.9-.6s-1.3.2-1.8.7l-.7.6V7.9c0-2.6 12.7-6.3 33.4-6.3s33.4 3.7 33.4 6.3v7.9z" style="fill:#009fa5"/></g></switch></svg>